<?xml version="1.0" encoding="UTF-8"?>
<svg xmlns="http://www.w3.org/2000/svg" version="1.1" xmlns:xlink="http://www.w3.org/1999/xlink" viewBox="0 0 1920 1080">
  <defs>
    <style>
      .cls-1 {
        mask: url(#mask-5);
      }

      .cls-2 {
        mask: url(#mask-1);
      }

      .cls-3 {
        fill: url(#_Áåçûìÿííûé_ãðàäèåíò_154-2);
      }

      .cls-3, .cls-4, .cls-5, .cls-6, .cls-7 {
        mix-blend-mode: screen;
      }

      .cls-8 {
        mask: url(#mask-6);
      }

      .cls-9 {
        mask: url(#mask-7);
      }

      .cls-10 {
        filter: url(#luminosity-noclip-5);
      }

      .cls-11 {
        mask: url(#mask);
      }

      .cls-4 {
        fill: url(#_Áåçûìÿííûé_ãðàäèåíò_90-2);
      }

      .cls-12 {
        fill: url(#_Áåçûìÿííûé_ãðàäèåíò_11);
      }

      .cls-12, .cls-13, .cls-14, .cls-15, .cls-16, .cls-17, .cls-18, .cls-19, .cls-20, .cls-21, .cls-22, .cls-23, .cls-24, .cls-25, .cls-26, .cls-27, .cls-28, .cls-29, .cls-30, .cls-31, .cls-32, .cls-33, .cls-34, .cls-35, .cls-36, .cls-37, .cls-38 {
        fill-rule: evenodd;
      }

      .cls-13 {
        fill: #ff9500;
      }

      .cls-14 {
        fill: url(#_Áåçûìÿííûé_ãðàäèåíò_28-2);
      }

      .cls-14, .cls-25, .cls-35, .cls-36 {
        mix-blend-mode: multiply;
      }

      .cls-15 {
        fill: url(#_Áåçûìÿííûé_ãðàäèåíò_76);
      }

      .cls-15, .cls-20, .cls-27, .cls-29 {
        opacity: .3;
      }

      .cls-16 {
        fill: #ffc40f;
      }

      .cls-17 {
        fill: #770b07;
      }

      .cls-39 {
        mask: url(#mask-2);
      }

      .cls-40 {
        filter: url(#luminosity-noclip-3);
      }

      .cls-18 {
        fill: #ff4700;
      }

      .cls-19 {
        fill: #ff981b;
      }

      .cls-5 {
        fill: url(#_Áåçûìÿííûé_ãðàäèåíò_88);
      }

      .cls-20 {
        fill: url(#_Áåçûìÿííûé_ãðàäèåíò_76-2);
      }

      .cls-41 {
        isolation: isolate;
      }

      .cls-21 {
        fill: url(#_Áåçûìÿííûé_ãðàäèåíò_44);
      }

      .cls-22 {
        fill: #ff7a07;
      }

      .cls-6 {
        fill: url(#_Áåçûìÿííûé_ãðàäèåíò_90);
      }

      .cls-23 {
        fill: url(#_Áåçûìÿííûé_ãðàäèåíò_11-4);
      }

      .cls-24 {
        fill: #9a0507;
      }

      .cls-25 {
        fill: url(#_Áåçûìÿííûé_ãðàäèåíò_28);
      }

      .cls-26 {
        fill: #cf3c07;
      }

      .cls-27 {
        fill: url(#_Áåçûìÿííûé_ãðàäèåíò_200);
      }

      .cls-28 {
        fill: #ffff9a;
      }

      .cls-29 {
        fill: url(#_Áåçûìÿííûé_ãðàäèåíò_200-2);
      }

      .cls-30 {
        fill: #d33107;
      }

      .cls-31 {
        fill: url(#_Áåçûìÿííûé_ãðàäèåíò_11-5);
      }

      .cls-32 {
        fill: #a41f07;
      }

      .cls-33 {
        fill: url(#_Áåçûìÿííûé_ãðàäèåíò_11-3);
      }

      .cls-42 {
        mask: url(#mask-4);
      }

      .cls-34 {
        fill: url(#_Áåçûìÿííûé_ãðàäèåíò_11-2);
      }

      .cls-35 {
        fill: url(#_Áåçûìÿííûé_ãðàäèåíò_29);
      }

      .cls-7 {
        fill: url(#_Áåçûìÿííûé_ãðàäèåíò_154);
      }

      .cls-36 {
        fill: url(#_Áåçûìÿííûé_ãðàäèåíò_29-2);
      }

      .cls-43 {
        filter: url(#luminosity-noclip-7);
      }

      .cls-37 {
        fill: #310b07;
      }

      .cls-38 {
        fill: #ffa100;
      }

      .cls-44 {
        mask: url(#mask-3);
      }

      .cls-45 {
        filter: url(#luminosity-noclip);
      }
    </style>
    <filter id="luminosity-noclip" x="693.47" y="453.78" width="133.45" height="149.7" color-interpolation-filters="sRGB" filterUnits="userSpaceOnUse">
      <feFlood flood-color="#fff" result="bg"/>
      <feBlend in="SourceGraphic" in2="bg"/>
    </filter>
    <filter id="luminosity-noclip-2" x="693.47" y="-8732" width="133.45" height="32766" color-interpolation-filters="sRGB" filterUnits="userSpaceOnUse">
      <feFlood flood-color="#fff" result="bg"/>
      <feBlend in="SourceGraphic" in2="bg"/>
    </filter>
    <mask id="mask-1" x="693.47" y="-8732" width="133.45" height="32766" maskUnits="userSpaceOnUse"/>
    <radialGradient id="_Áåçûìÿííûé_ãðàäèåíò_28" data-name="Áåçûìÿííûé ãðàäèåíò 28" cx="526.04" cy="875.66" fx="526.04" fy="875.66" r="66.75" gradientTransform="translate(-204.52 851.54) rotate(-77.39)" gradientUnits="userSpaceOnUse">
      <stop offset="0" stop-color="#fff"/>
      <stop offset=".1" stop-color="#f9f9f9"/>
      <stop offset=".22" stop-color="#e8e8e8"/>
      <stop offset=".36" stop-color="#cdcdcd"/>
      <stop offset=".51" stop-color="#a8a8a8"/>
      <stop offset=".67" stop-color="#777"/>
      <stop offset=".84" stop-color="#3d3d3d"/>
      <stop offset="1" stop-color="#000"/>
    </radialGradient>
    <mask id="mask" x="693.47" y="453.78" width="133.45" height="149.7" maskUnits="userSpaceOnUse">
      <g class="cls-45">
        <g class="cls-2">
          <path class="cls-25" d="M719.17,562.93c.81.63,4.49,2.67,2.75,4.01-.4.31-1,.8-1.54.82-.56.02-.68-.12-1.22.08-1.41.52-2.8,1.18-4.22,1.73-1.21.47-2.46,1.13-3.56,1.82-.42.26-1.04.6-1.28,1.02.46.18.87.6.25.87-1.08.47-3.08-1.45-3.69-1.98-.53-.45-1.67-1.22-1.85-1.88-.08-.3.11-.38-.07-.69-.29-.49-1.15-.8-1.64-1.05-1.64-.84-3.71-.81-5.48-.41-1.03.23-2.27.45-3.13,1.11-.26.2-.74.73-.89,1.01-.34.62.01.94.47,1.38.83.8,1.91,1.02,2.83,1.65.35.24.3.18.44.53.11.28.08.59.2.86.26.59,1.19.98,1.72,1.22,2.05.96,4.54,1.11,6.74,1.15,1.7.04,3.57.09,5.21.57.77.22.41.71.26,1.39-.27,1.2-.45,2.44-.27,3.68.46,3.22,3.31,5.69,5.48,7.85,1.16,1.15,2.41,2.04,3.81,2.87,1.02.61,2.07,1.4,3.28,1.52,1.45.15,2.17-1.13,3.46-1.64,2.48-.98,5.06.12,7.58.21,1.36.05,3.53-.04,4.12-1.56-.84-.8-2.13-1.51-2.46-2.68-.41-1.44.48-2.75.51-4.14.03-1.38-1.53-2.14-1.98-3.32-.56-1.5.79-3.19,2.21-3.5,2.34-.52,4.51.63,6.49,1.75,1.02.58,1.93.99,3.1,1.25,1.69.38,3.04.21,4.73.02,1.84-.21,4.47-.52,5.94.89.76.73,1.03,1.75.97,2.78-.09,1.6.02,3.04.27,4.63.09.59.14,1.87.67,2.26.39.29.96.16,1.37.07,1.33-.3,3.42-.44,4.74.01,1.13.39,2.12,1.22,2.98,1.98.64.56,1.57.62,2.38.79.39.08.65.03.73.41.14.65-.83,1.55-1.15,2.04-.7,1.1-1.47,2.16-2.17,3.26-.34.53-1.1,1.66-1.13,2.29-.03.73.72,1.16,1.35,1.4,1.26.49,2.65.1,3.92-.16,3.98-.8,7.07-3.67,11.04-4.4,2.74-.5,5.51-.04,8.26-.47,2.6-.41,5.29-1.16,7.65-2.34,2.17-1.08,4.23-2.14,5.89-3.95,1.29-1.42,2.23-2.83,2.81-4.69.98-3.14-.33-6.39.52-9.56.36-1.37,1-2.58,1.74-3.78.68-1.09,1.46-2.07,1.48-3.42-.41-.33-1.28.04-1.72.13-1.17.24-2.56.55-3.77.3-2.56-.53-2.35-3.48-.94-5.1.75-.86,1.61-1.42,2.74-1.56.93-.11,1.81-.08,2.68-.48,2.51-1.15,3.29-4.42,3.81-6.88.21-.98.52-1.97.63-2.96.1-.87.04-1.69.35-2.53.45-1.2,1.19-2.28,1.67-3.47.85-2.06,1.15-4.35,1.09-6.58-.05-1.68-.1-3.35.07-5.02.09-.92.2-1.58,1.01-2.06,1.71-1.02,3.38-.71,5.08.01,1.23.52,1.54.1,1.85-1.11.23-.9.21-1.75.22-2.67.01-1.08.14-2.13.26-3.19.25-2.18-.26-3.87-2.01-5.26-1.22-.97-2.67-1.27-4.11-1.78-1.84-.65-3.67-1.66-5.15-2.93-2.3-1.98-4.32-5.6-3.65-8.7.18-.85.42-1.68.59-2.53.11-.54.13-.57.56-.81,1.85-1.06,3.45-2.38,3.5-4.65.04-1.83-.7-3.44-1.72-4.92-1.03-1.5-2.42-2.76-3.03-4.53-.57-1.64-.23-3.2.49-4.73.43-.92,1.2-1.73,1.49-2.71.44-1.5-1.15-2.2-2.24-2.85-2.95-1.79-6.34-3.03-9.54-4.3-2.11-.84-4.26-1.49-6.39-2.27-2.68-.98-5.3-2.11-7.89-3.29-2.96-1.35-6.01-3.14-7.91-5.86-.71-1.02-1.67-3.15-1.24-4.45.16-.47.55-.79.8-1.21-.44-.46-1.36-.77-1.87-.96-1.91-.7-4.01-1.21-5.99-1.69-5.66-1.35-11.45-2.11-17.24-2.72-2.43-.26-4.92-.52-7.36-.29-1.92.18-4.72,1.2-6.11,2.63-2.36,2.42-3.32,6.03-3.32,9.34,0,.41-.18,1.55.24,1.83.6.4,1.65-.54,2.14-.83.98-.58,2.23-1.15,3.41-.95,1.61.27,2.92,1.29,4.33,2.02,2.11,1.09,4.4,1.7,6.75,2.03.98.14,4.2-.05,3.34,1.88-1.18,2.66-5.04,3.67-7.38,4.76-1.57.73-2.83,1.79-3.88,3.16-1.32,1.72-1.49,3.72-1.49,5.8,0,1.65.43,3.57.25,5.21-.18,1.61-.84,2.6-2.03,3.7-2.61,2.42-5.74,4.17-8.72,6.07-3.25,2.07-6.43,4.24-9.54,6.52-3.95,2.9-8.01,6.21-11.3,9.86-2.69,2.98-5.11,6.59-6.17,10.52-1.31,4.83-1.59,10.43.81,14.96.93,1.76,2.26,3.29,3.34,4.96.9,1.38,1.51,2.96,1.87,4.57.52,2.29.64,4.72,1.91,6.78.95,1.53,2.18,3.2,3.76,4.24Z"/>
        </g>
      </g>
    </mask>
    <radialGradient id="_Áåçûìÿííûé_ãðàäèåíò_200" data-name="Áåçûìÿííûé ãðàäèåíò 200" cx="526.04" cy="875.66" fx="526.04" fy="875.66" r="66.75" gradientTransform="translate(-204.52 851.54) rotate(-77.39)" gradientUnits="userSpaceOnUse">
      <stop offset="0" stop-color="#ff1800"/>
      <stop offset=".38" stop-color="#fe1d03"/>
      <stop offset=".88" stop-color="#fc2e0d"/>
      <stop offset="1" stop-color="#fc3310"/>
    </radialGradient>
    <filter id="luminosity-noclip-3" x="728.48" y="325.27" width="438.56" height="478.29" color-interpolation-filters="sRGB" filterUnits="userSpaceOnUse">
      <feFlood flood-color="#fff" result="bg"/>
      <feBlend in="SourceGraphic" in2="bg"/>
    </filter>
    <filter id="luminosity-noclip-4" x="728.48" y="-8732" width="438.56" height="32766" color-interpolation-filters="sRGB" filterUnits="userSpaceOnUse">
      <feFlood flood-color="#fff" result="bg"/>
      <feBlend in="SourceGraphic" in2="bg"/>
    </filter>
    <mask id="mask-3" x="728.48" y="-8732" width="438.56" height="32766" maskUnits="userSpaceOnUse"/>
    <radialGradient id="_Áåçûìÿííûé_ãðàäèåíò_29" data-name="Áåçûìÿííûé ãðàäèåíò 29" cx="947.76" cy="564.41" fx="947.76" fy="564.41" r="229.43" gradientUnits="userSpaceOnUse">
      <stop offset="0" stop-color="#fff"/>
      <stop offset=".29" stop-color="#fcfcfc"/>
      <stop offset=".45" stop-color="#f4f4f4"/>
      <stop offset=".58" stop-color="#e6e6e6"/>
      <stop offset=".69" stop-color="#d3d3d3"/>
      <stop offset=".79" stop-color="#bababa"/>
      <stop offset=".88" stop-color="#9b9b9b"/>
      <stop offset=".97" stop-color="#777"/>
      <stop offset="1" stop-color="#666"/>
    </radialGradient>
    <mask id="mask-2" x="728.48" y="325.27" width="438.56" height="478.29" maskUnits="userSpaceOnUse">
      <g class="cls-40">
        <g class="cls-44">
          <path class="cls-35" d="M1102.32,481.65c-5.55,4.47-9.22,9.18-16.32,8.05-4.86-.77-11.87-3.88-13.88-8.83-2.28-5.6,7.48-17.12,13.68-17.39.76-2.87.22-6.26.24-9.25.04-6.77.25-13.77-2.29-20.2-1.68-4.27-4.42-8.97-7.63-12.25-4.07-4.16-9.65-6.07-14.02-9.76-5.28-4.46-4.67-9.79,2.96-8.23,4.46.91,8.38,2.9,13,3.13,2.5.13,5.73-.79,8.18-.21,2.56.61,3.78,3.19,4.8-1.51,2.09-9.58-3.5-18.5-8.55-26.07-4.01-6.01-10.17-12.17-16.35-16.02-3.86-2.41-8.45-2.97-12.33-5.33-4.48-2.73-7.07-7.18-10.33-11.11-8.11-9.78-17.94-17.11-30.48-19.93-25.13-5.65-48.33,5.31-61.99,26.76-8.24,12.94-15.61,28.99-19.45,43.72-1.32,5.05-6.03,25.67,1.79,27.93,5.39,1.56,42.73-23.2,36.98-4.19-1.13,3.74-4.59,6.07-7.39,8.46-4.62,3.94-8.66,7.76-11.7,13.1-4.53,7.97-5.82,17.29-10.38,25.1-5.14,8.8-9.88,8.43-19.42,5.99-8.43-2.16-22.94-9.59-31.9-6.16-5.28,2.02-12.72,15.22-18.39,9.2-4.3-4.56-3.88-12.58-1.52-17.74,6.27-13.71,22.58-12.9,35.38-14.37,7.09-.82,11.5.61,11.93-8.56.28-5.94-.34-11.75.24-17.72.46-4.77,1.17-9.35,1.31-14.14.14-4.9.19-8.71,1.21-13.45.46-2.14.42-2.68,0-4.66-.59-2.76-2.99-5.43-5.09-7.45-7.52-7.23-15.68-21.32-27.09-22.47-8.4-.84-16.01,3.76-23.25,7.25-10.17,4.9-16.73,5.73-27.17.81-5.75-2.71-12.79-8.01-19.32-7.59-4.69.3-9.95,1.81-14.46,3.08-5.86,1.64-11.38,1.9-17.47,1.65-4.37-.18-9.06-1.38-13.4-1.19-6.13.27-12.38,3.86-16.9,7.79-8.9,7.74-14.22,19.56-9.42,30.89,3.17,7.5,13.09,12.82,18.97,17.76,6.46,5.43,14.02,11.01,19.45,17.52,4.21,5.05,14.65,18.44,7.27,24.54-7.29,6.02-35.81,8.24-24.4,22.95,4.48,5.77,7.3,11.89,10.72,18.18,1.54,2.84,2.74,3.85,1.67,7.54-1.03,3.56-5.3,7.21-6.12,11.05-.49,2.33-.56,6.51-.15,8.87.42,2.38,3.04,5.65,1.82,8.25-1.43,3.06-14.38,2.76-17.5,3.01-11.81.94-23.67,10.72-28.05,21.75-6.14,15.47,10.05,26.7,19.2,36.43,9.4,9.99,11.52,22.34,9.84,35.81-1.14,9.11-4.93,17.51-6.61,26.51-2.01,10.78-1.63,21.06.96,31.68,3.28,13.47,13.35,20.19,27.27,20.08,12.56-.1,23.7-10.92,33.91-17.22,7.07-4.36,18.63-13.8,27.74-12.68,6.59.81,9.05,6.45,13.26,10.43,4.69,4.44,10.06,6.51,15.97,3.24,12.52-6.93,23.07-19.95,33.71-29.19,9.61-8.35,21.6-16.04,34.6-17.48,5.53-.61,12.62,1.85,17.91,3,10.03,2.18-.12,10.26,4.58,16.35,1.78,2.31,6.04,3.61,8.37,5.2,2.1,1.43,4.05,3.11,6.13,4.57,3.73,2.61,13.22,7.6,13.58,12.93.24,3.59-4.35,7.3-3.79,11.03,1.28,8.41,20.45,12.74,26.88,15.48,6.53,2.78,12.23,4.95,17.78,9.32,3.8,3,7.68,3.79,7.83,8.79.39,12.86-9.28,25.82-5.17,38.51,2.82,8.68,9.94,12.33,17.72,15.86,9.45,4.28,19.74,8.45,29.65,11.57,5.17,1.63,12.81,5.35,17.87,1.28,9.11-7.31,4.48-27.36,3.45-36.36-1.01-8.78-2.34-17.49-3.55-26.24-1.22-8.82-4.91-23.09,3.2-29.98,5.95-5.06,16.45-6.67,23.44-9.68,9.01-3.88,16.75-8.32,22.73-16.14,11.22-14.66,13.11-39.27-2.5-51.88-11.49-9.27-31.27-12.83-45.32-14.53-5.81-.7-11.37-.18-17.08.97-2.64.53-8.48,3.34-11.06,1.53-2.88-2.02-.87-7.62-.32-10.03,3.3-14.31,12.5-28.92,23.73-38.37,6.24-5.25,12.76-8.77,21.07-6.71,4.91,1.21,9.37,4.36,14.68,3.97,10.68-.79,7.29-21.54,14.98-26.7,6.36-4.27,15.25,3.73,19.17-3.6,2.83-5.29.76-15.34-.73-20.54-2.33-8.12-6.82-14.69-11.39-21.6-3.45-5.21-8.22-11.61-9.01-18.11-1.27-10.34,7.49-18.17,11.41-26.81,1.39-3.07,8.23-19.78,1.46-21.21-5.31-1.12-16.29,10.58-19.25,12.99-10.84,8.82-21.86,17.59-35.79,38.96Z"/>
        </g>
      </g>
    </mask>
    <radialGradient id="_Áåçûìÿííûé_ãðàäèåíò_76" data-name="Áåçûìÿííûé ãðàäèåíò 76" cx="947.76" cy="564.41" fx="947.76" fy="564.41" r="229.43" gradientUnits="userSpaceOnUse">
      <stop offset="0" stop-color="#310007"/>
      <stop offset=".65" stop-color="#2e0009"/>
      <stop offset="1" stop-color="#270010"/>
    </radialGradient>
    <filter id="luminosity-noclip-5" x="891.27" y="336.1" width="255.57" height="387.26" color-interpolation-filters="sRGB" filterUnits="userSpaceOnUse">
      <feFlood flood-color="#fff" result="bg"/>
      <feBlend in="SourceGraphic" in2="bg"/>
    </filter>
    <filter id="luminosity-noclip-6" x="891.27" y="-8732" width="255.57" height="32766" color-interpolation-filters="sRGB" filterUnits="userSpaceOnUse">
      <feFlood flood-color="#fff" result="bg"/>
      <feBlend in="SourceGraphic" in2="bg"/>
    </filter>
    <mask id="mask-5" x="891.27" y="-8732" width="255.57" height="32766" maskUnits="userSpaceOnUse"/>
    <radialGradient id="_Áåçûìÿííûé_ãðàäèåíò_29-2" data-name="Áåçûìÿííûé ãðàäèåíò 29" cx="1019.05" cy="529.72" fx="1019.05" fy="529.72" r="164.04" xlink:href="#_Áåçûìÿííûé_ãðàäèåíò_29"/>
    <mask id="mask-4" x="891.27" y="336.1" width="255.57" height="387.26" maskUnits="userSpaceOnUse">
      <g class="cls-10">
        <g class="cls-1">
          <path class="cls-36" d="M1046.32,693.3c3.96-.49,10.21-1.1,11.77,4.08.71,2.37.42,5.98.07,8.32-.21,1.4-.96.95-.77,2.76.08.76.78,2.22,1.08,2.94,1.69,3.97,3.53,7.98,5.24,11.96,1.18-2.25,1.41-4.63,2.01-7.09,1.22-4.98,3.57-10.66,7.72-14,3.47-2.79,7.96-.79,11.98-1.34,3.53-.48,2.43-2.23,4-4.66,1.16-1.81,4.43-3.11,6.25-3.95,4.42-2.05,7.67-1.52,7.78-7.75.14-8.15-7.12-17.17-13.6-21.6-6.4-4.37-14.08-2.05-20.63.54-2.61,1.03-5.25,1.6-7.25,3.76-.99,1.07-1.63,3.59-3.55,3.16-1.1-2.83.92-6.51,1.99-9,2.68-6.24,5.67-11.35,11.71-14.67,4.72-2.6,7.49-2.71,12-.04,2.1,1.24,2.11,1.24,3.93,0,2.23-1.53,2.97-3.39,6.01-3.18,4.3.3,6.45,4.52,8.07,7.9.89,1.85,5.83,15.26,9.59,10.56,2.2-2.75.54-9.16.21-11.93-.6-5.13-.46-9.34.85-14.4,1.62-6.26-.27-8.96-6.43-11.75-4.55-2.06-8.91-4.55-13.47-6.61-2.93-1.33-5.75-1.78-8.59.11-4.54,3.04-7.29,9.22-9.55,13.92-1.39,2.89-3.14,6.82-6.43,7.84-4.23-8.42-5.89-18.16-6.67-27.48-.84-10.07-.76-23.49,5.58-32.03,2.43-3.27,5.42-4.39,9.44-4.66,3.83-.25,7.84,1.59,11.42,1.13,5.96-.76,10-7.68,13.06-11.95,2.67-3.72,5.42-7.35,8.35-10.87,3.15-3.79,6.26-8.31,10.22-11.36,3.44-2.65,8.06-2.74,12.19-2.77,1.39,0,5.14.63,6.72-.08,4.3-1.95,3.35-12.52,3.24-16.37-.28-9.73-4.21-19.13-5.38-28.78-.28-2.3-.57-4.63.43-6.79.81-1.75,2.12-2.04,3.27-3.23,1.18-1.23,2.96-3.33.56-4.4-2.45-1.1-6.23,1.53-8.48,2.02-2.36.51-6.38.46-7.72-2.12-2.41-4.67,5.9-10.28,8.61-12.91,4.61-4.48,6.26-8.99,8.6-14.85,1.39-3.49,2.56-8.47,5.06-11.32-2.03.92-3.47,3.01-5.1,4.47-3.15,2.82-6.39,5.36-9.38,8.38-7.48,7.56-14.77,16.21-24.05,21.66-5.76,3.38-12.35,5.26-18.55,7.67-1.95.76-3.89,1.9-6.05,1.47-3.79-.76-8.59-1.71-12.18-3.44-5.9-2.84-11.92-8.05-16.41-12.71-3.19-3.32-2.29-6.57-2.29-11.07,0-5.79-2.38-16.27,2.92-20.56,5.06-4.09,10.31,4.43,13.86,6.94,4.99,3.52,4.44-3.1,3.74-6.85-1.22-6.54-6.73-11.88-11.9-15.63-2.98-2.17-7.96-2.85-9.23-6.69-1.14-3.45,1.08-2.95,3.3-4.76,2.69-2.2,4.08-5.74,7.29-7.49,3.53-1.92,9.05-1.13,11.54-4.68,4.22-6.01-.82-15.6-4.98-20.02-3.94-4.18-8.81-6.75-13.52-9.84-2.53-1.66-4.72-3.88-7.29-5.45,1.61,2.34,5.49,5.66,3.79,8.8-1.29,2.38-5.8,4.7-7.77,6.47-2.06,1.85-3.72,4.39-5.21,6.7-2.79,4.36-1.85,6.89,1.53,10.2,4.49,4.38,7.77,9.17,9.71,15.25,1.21,3.79,1.81,7.81.25,11.62-1.34,3.27-5.66,7.7-9.51,7.92-4.36.25-6.2-7.92-7.29-10.89-2.55-6.94-3.9-14.16-8.14-20.33-1.96-2.85-3.14-4.4-6.69-4.7-2.89-.24-5.71-.96-8.48-1.85-1.98-.63-3.65-1.64-5.73-1.21-6.23,1.27-11.89,5.21-18.21,6.28-3.01.51-8.6.58-10.94-1.97-1.74-1.89-1.18-5.41-1.08-7.7.17-3.96,1.22-8.12,2.29-11.95,2.21-7.87,6.33-15.6,6.27-23.97-.04-5.27-1.58-11.69-7.21-13.67-3.93-1.38-9.28-.42-12.67,1.77-2.94,1.89-2.81,3.56-4.52,6.09-2.69,3.98-8.73,5.59-12.42,8.22-4.61,3.29-13.67,9.86-14.01,16.21-.11,2.03.83,3.58,1.48,5.47.94,2.72,1.65,5.47,2.25,8.29,1.52,7.24-2.21,13.2-3.95,20.04-.65,2.55-2.37,6.67.18,8.63,4.03,3.09,13.98-6.22,16.54-8.1,4.71-3.45,12.36-10.33,16-2.49,5.28,11.39-3.67,23.59-11.68,30.65-15.49,13.65-33,25.43-47.12,40.59-7.92,8.51-19.02,18.96-13.43,31.39,6.88,15.31,22.32,27.54,34.81,37.94,6.42,5.34,13.03,10.42,19.24,16,8.16,7.32,13.22,15.44,16.67,25.74,2.76,8.23,3.07,17.41,4.76,25.91,2.5,12.59,7.85,23.5,15.2,33.86,4.06,5.73,9.21,11.39,14.58,16.02,8.21,7.08,18.28,9.95,28.44,12.74,10.22,2.81,22.56,5.8,28.54,15.42,1.19,1.92,1.63,3.8,2.5,5.83.52,1.21,1.8,2.26-11.21.33Z"/>
        </g>
      </g>
    </mask>
    <radialGradient id="_Áåçûìÿííûé_ãðàäèåíò_76-2" data-name="Áåçûìÿííûé ãðàäèåíò 76" cx="1019.05" cy="529.72" fx="1019.05" fy="529.72" r="164.04" xlink:href="#_Áåçûìÿííûé_ãðàäèåíò_76"/>
    <radialGradient id="_Áåçûìÿííûé_ãðàäèåíò_44" data-name="Áåçûìÿííûé ãðàäèåíò 44" cx="950" cy="534.32" fx="950" fy="534.32" r="182.23" gradientUnits="userSpaceOnUse">
      <stop offset="0" stop-color="#ff5c00"/>
      <stop offset=".2" stop-color="#da4402"/>
      <stop offset=".41" stop-color="#bd3004"/>
      <stop offset=".61" stop-color="#a82305"/>
      <stop offset=".81" stop-color="#9c1a06"/>
      <stop offset="1" stop-color="#981807"/>
    </radialGradient>
    <linearGradient id="_Áåçûìÿííûé_ãðàäèåíò_11" data-name="Áåçûìÿííûé ãðàäèåíò 11" x1="1173.39" y1="475.75" x2="1173.39" y2="391.1" gradientUnits="userSpaceOnUse">
      <stop offset="0" stop-color="#700"/>
      <stop offset=".15" stop-color="#700002"/>
      <stop offset=".48" stop-color="#670005"/>
      <stop offset="1" stop-color="#650007"/>
    </linearGradient>
    <linearGradient id="_Áåçûìÿííûé_ãðàäèåíò_11-2" data-name="Áåçûìÿííûé ãðàäèåíò 11" x1="694.88" y1="416.09" x2="694.88" y2="354.03" xlink:href="#_Áåçûìÿííûé_ãðàäèåíò_11"/>
    <linearGradient id="_Áåçûìÿííûé_ãðàäèåíò_11-3" data-name="Áåçûìÿííûé ãðàäèåíò 11" x1="690.42" y1="364.96" x2="690.42" y2="326.04" xlink:href="#_Áåçûìÿííûé_ãðàäèåíò_11"/>
    <linearGradient id="_Áåçûìÿííûé_ãðàäèåíò_11-4" data-name="Áåçûìÿííûé ãðàäèåíò 11" x1="804.43" y1="764.34" x2="804.43" y2="649.24" xlink:href="#_Áåçûìÿííûé_ãðàäèåíò_11"/>
    <linearGradient id="_Áåçûìÿííûé_ãðàäèåíò_11-5" data-name="Áåçûìÿííûé ãðàäèåíò 11" x1="783.22" y1="702.37" x2="783.22" y2="657.5" xlink:href="#_Áåçûìÿííûé_ãðàäèåíò_11"/>
    <radialGradient id="_Áåçûìÿííûé_ãðàäèåíò_88" data-name="Áåçûìÿííûé ãðàäèåíò 88" cx="971.43" cy="522.43" fx="971.43" fy="522.43" r="95.19" gradientUnits="userSpaceOnUse">
      <stop offset="0" stop-color="#ff9500"/>
      <stop offset=".05" stop-color="#ef8600"/>
      <stop offset=".29" stop-color="#af4d00"/>
      <stop offset=".49" stop-color="#802300"/>
      <stop offset=".65" stop-color="#630900"/>
      <stop offset=".73" stop-color="#590000"/>
      <stop offset=".75" stop-color="#480000"/>
      <stop offset=".79" stop-color="#2e0000"/>
      <stop offset=".82" stop-color="#190000"/>
      <stop offset=".87" stop-color="#0b0000"/>
      <stop offset=".92" stop-color="#020000"/>
      <stop offset="1" stop-color="#000"/>
    </radialGradient>
    <radialGradient id="_Áåçûìÿííûé_ãðàäèåíò_90" data-name="Áåçûìÿííûé ãðàäèåíò 90" cx="1014.98" cy="546.96" fx="1014.98" fy="546.96" r="63.45" gradientTransform="translate(1398.69 -715) rotate(76.72) scale(1.13)" gradientUnits="userSpaceOnUse">
      <stop offset="0" stop-color="#ff9500"/>
      <stop offset=".03" stop-color="#ef8600"/>
      <stop offset=".17" stop-color="#af4d00"/>
      <stop offset=".29" stop-color="#802300"/>
      <stop offset=".39" stop-color="#630900"/>
      <stop offset=".44" stop-color="#590000"/>
      <stop offset=".48" stop-color="#480000"/>
      <stop offset=".55" stop-color="#2e0000"/>
      <stop offset=".63" stop-color="#190000"/>
      <stop offset=".72" stop-color="#0b0000"/>
      <stop offset=".83" stop-color="#020000"/>
      <stop offset="1" stop-color="#000"/>
    </radialGradient>
    <radialGradient id="_Áåçûìÿííûé_ãðàäèåíò_154" data-name="Áåçûìÿííûé ãðàäèåíò 154" cx="871.92" cy="500.92" fx="871.92" fy="500.92" r="118.83" gradientTransform="translate(599.33 -605.28) rotate(45) scale(1.13)" gradientUnits="userSpaceOnUse">
      <stop offset="0" stop-color="#981400"/>
      <stop offset=".42" stop-color="#560b00"/>
      <stop offset="1" stop-color="#000"/>
    </radialGradient>
    <radialGradient id="_Áåçûìÿííûé_ãðàäèåíò_154-2" data-name="Áåçûìÿííûé ãðàäèåíò 154" cx="957.99" cy="588.77" fx="957.99" fy="588.77" r="142.34" gradientTransform="translate(-92.3 -72.22) scale(1.13)" xlink:href="#_Áåçûìÿííûé_ãðàäèåíò_154"/>
    <radialGradient id="_Áåçûìÿííûé_ãðàäèåíò_90-2" data-name="Áåçûìÿííûé ãðàäèåíò 90" cx="1020.57" cy="300.86" fx="1020.57" fy="300.86" r="10.55" gradientTransform="translate(1507.12 -756.03) rotate(90) scale(1.13 1.31)" xlink:href="#_Áåçûìÿííûé_ãðàäèåíò_90"/>
    <filter id="luminosity-noclip-7" x="792.54" y="559.69" width="224.35" height="189.22" color-interpolation-filters="sRGB" filterUnits="userSpaceOnUse">
      <feFlood flood-color="#fff" result="bg"/>
      <feBlend in="SourceGraphic" in2="bg"/>
    </filter>
    <filter id="luminosity-noclip-8" x="792.54" y="-8732" width="224.35" height="32766" color-interpolation-filters="sRGB" filterUnits="userSpaceOnUse">
      <feFlood flood-color="#fff" result="bg"/>
      <feBlend in="SourceGraphic" in2="bg"/>
    </filter>
    <mask id="mask-7" x="792.54" y="-8732" width="224.35" height="32766" maskUnits="userSpaceOnUse"/>
    <radialGradient id="_Áåçûìÿííûé_ãðàäèåíò_28-2" data-name="Áåçûìÿííûé ãðàäèåíò 28" cx="904.72" cy="654.3" fx="904.72" fy="654.3" r="103.76" gradientTransform="matrix(1,0,0,1,0,0)" xlink:href="#_Áåçûìÿííûé_ãðàäèåíò_28"/>
    <mask id="mask-6" x="792.54" y="559.69" width="224.35" height="189.22" maskUnits="userSpaceOnUse">
      <g class="cls-43">
        <g class="cls-9">
          <path class="cls-14" d="M838.24,596.37c-.69,1.44-2.52,7.72-5.15,5.53-.61-.5-1.55-1.25-1.76-2.06-.22-.85-.05-1.08-.53-1.83-1.27-1.96-2.73-3.85-4.06-5.81-1.13-1.67-2.55-3.35-3.96-4.79-.54-.55-1.27-1.37-1.98-1.59-.12.76-.61,1.53-1.23.68-1.08-1.48,1.16-5.16,1.76-6.27.51-.95,1.28-2.95,2.23-3.45.43-.22.62.04,1.03-.35.65-.61.83-2.02,1.04-2.84.72-2.78-.04-5.91-1.24-8.45-.7-1.48-1.45-3.28-2.75-4.37-.39-.33-1.35-.87-1.84-1.01-1.06-.3-1.42.34-1.94,1.18-.94,1.54-.9,3.25-1.54,4.86-.24.62-.17.52-.66.85-.38.26-.87.32-1.24.59-.8.59-1.08,2.13-1.27,3.02-.76,3.43-.14,7.26.54,10.62.52,2.59,1.07,5.44.91,8.1-.07,1.25-.94.87-2.03.86-1.92,0-3.86.15-5.68.83-4.73,1.79-7.5,6.95-10.05,10.98-1.36,2.15-2.27,4.35-3.07,6.76-.58,1.75-1.41,3.62-1.19,5.49.27,2.25,2.46,2.91,3.67,4.69,2.33,3.42,1.54,7.72,2.25,11.57.39,2.09,1.25,5.34,3.76,5.72.92-1.54,1.57-3.74,3.23-4.64,2.05-1.12,4.33-.2,6.45-.63,2.1-.42,2.72-3.05,4.37-4.12,2.09-1.36,5.11.12,6.06,2.16,1.58,3.38.58,7.05-.45,10.44-.53,1.75-.84,3.27-.84,5.13,0,2.7.71,4.68,1.58,7.19.94,2.71,2.3,6.61.67,9.32-.85,1.4-2.31,2.16-3.88,2.42-2.45.4-4.61,1.07-6.93,1.98-.86.34-2.79.84-3.2,1.78-.3.69.08,1.51.36,2.1.91,1.91,1.83,5.04,1.59,7.19-.21,1.84-1.13,3.62-1.99,5.19-.63,1.16-.41,2.59-.39,3.88.01.63.18,1-.37,1.25-.94.43-2.63-.74-3.49-1.05-1.91-.69-3.78-1.49-5.68-2.19-.92-.34-2.89-1.1-3.86-.93-1.12.2-1.51,1.48-1.67,2.53-.32,2.08.75,4.06,1.57,5.89,2.56,5.76,7.97,9.47,10.42,15.25,1.69,3.98,1.93,8.35,3.51,12.37,1.5,3.81,3.56,7.63,6.14,10.82,2.38,2.93,4.68,5.7,7.99,7.59,2.59,1.48,5.06,2.43,8.07,2.67,5.09.42,9.59-2.66,14.67-2.46,2.2.09,4.25.64,6.33,1.36,1.89.66,3.64,1.5,5.69,1.08.36-.73-.49-1.93-.78-2.57-.76-1.7-1.71-3.7-1.74-5.62-.06-4.06,4.48-4.75,7.42-3.16,1.57.85,2.7,1.96,3.3,3.63.49,1.37.74,2.72,1.63,3.91,2.59,3.41,7.82,3.49,11.73,3.45,1.56-.01,3.16.12,4.71-.04,1.35-.14,2.57-.52,3.96-.32,1.98.28,3.87,1.03,5.83,1.36,3.42.58,7,.27,10.34-.58,2.53-.64,5.04-1.28,7.64-1.59,1.42-.17,2.46-.24,3.47.83,2.12,2.25,2.23,4.89,1.7,7.72-.38,2.04.36,2.37,2.31,2.43,1.44.05,2.73-.28,4.12-.58,1.64-.35,3.27-.52,4.93-.69,3.4-.36,5.78-1.7,7.29-4.84,1.05-2.19,1.02-4.48,1.31-6.84.36-3,1.27-6.13,2.7-8.81,2.22-4.16,7.03-8.45,11.96-8.48,1.35,0,2.69.07,4.04.04.86-.02.9,0,1.43.57,2.24,2.44,4.78,4.43,8.24,3.74,2.78-.56,4.97-2.23,6.89-4.28,1.93-2.08,3.37-4.61,5.84-6.14,2.29-1.42,4.78-1.43,7.34-.86,1.55.35,3.03,1.23,4.62,1.34,2.43.16,2.94-2.49,3.57-4.36,1.72-5.08,2.45-10.65,3.29-15.94.55-3.48.82-6.97,1.27-10.46.57-4.4,1.41-8.75,2.32-13.09,1.04-4.95,2.72-10.18,6.21-13.99,1.31-1.43,4.22-3.6,6.33-3.39.77.08,1.39.57,2.11.8.55-.82.7-2.32.82-3.16.42-3.14.48-6.5.53-9.65.13-9.05-.68-18.09-1.72-27.07-.44-3.77-.89-7.64-2.05-11.26-.92-2.85-3.42-6.75-6.07-8.38-4.47-2.76-10.27-2.99-15.29-1.87-.62.14-2.41.26-2.69.98-.41,1.05,1.39,2.32,1.98,2.96,1.21,1.29,2.5,2.99,2.6,4.86.14,2.53-.97,4.86-1.6,7.25-.94,3.57-1.09,7.25-.79,10.93.12,1.54,1.49,6.35-1.72,5.71-4.43-.89-7.28-6.4-9.72-9.57-1.64-2.13-3.68-3.69-6.11-4.82-3.06-1.42-6.15-1-9.3-.29-2.5.57-5.27,1.86-7.82,2.15-2.51.28-4.22-.39-6.3-1.82-4.55-3.13-8.27-7.3-12.17-11.17-4.25-4.22-8.61-8.32-13.12-12.26-5.74-5.01-12.14-10.05-18.79-13.79-5.44-3.06-11.73-5.51-18.06-5.79-7.78-.34-16.37,1.12-22.42,6.31-2.35,2.01-4.23,4.55-6.39,6.76-1.79,1.83-3.98,3.29-6.29,4.39-3.3,1.57-6.94,2.57-9.64,5.2-2.01,1.96-4.12,4.39-5.16,7.15Z"/>
        </g>
      </g>
    </mask>
    <radialGradient id="_Áåçûìÿííûé_ãðàäèåíò_200-2" data-name="Áåçûìÿííûé ãðàäèåíò 200" cx="904.72" cy="654.3" fx="904.72" fy="654.3" r="103.76" gradientTransform="matrix(1,0,0,1,0,0)" xlink:href="#_Áåçûìÿííûé_ãðàäèåíò_200"/>
  </defs>
  <!-- Generator: Adobe Illustrator 28.7.0, SVG Export Plug-In . SVG Version: 1.2.0 Build 4)  -->
  <g class="cls-41">
    <g id="Layer_1">
      <g>
        <g class="cls-11">
          <path class="cls-27" d="M719.17,562.93c.81.63,4.49,2.67,2.75,4.01-.4.31-1,.8-1.54.82-.56.02-.68-.12-1.22.08-1.41.52-2.8,1.18-4.22,1.73-1.21.47-2.46,1.13-3.56,1.82-.42.26-1.04.6-1.28,1.02.46.18.87.6.25.87-1.08.47-3.08-1.45-3.69-1.98-.53-.45-1.67-1.22-1.85-1.88-.08-.3.11-.38-.07-.69-.29-.49-1.15-.8-1.64-1.05-1.64-.84-3.71-.81-5.48-.41-1.03.23-2.27.45-3.13,1.11-.26.2-.74.73-.89,1.01-.34.62.01.94.47,1.38.83.8,1.91,1.02,2.83,1.65.35.24.3.18.44.53.11.28.08.59.2.86.26.59,1.19.98,1.72,1.22,2.05.96,4.54,1.11,6.74,1.15,1.7.04,3.57.09,5.21.57.77.22.41.71.26,1.39-.27,1.2-.45,2.44-.27,3.68.46,3.22,3.31,5.69,5.48,7.85,1.16,1.15,2.41,2.04,3.81,2.87,1.02.61,2.07,1.4,3.28,1.52,1.45.15,2.17-1.13,3.46-1.64,2.48-.98,5.06.12,7.58.21,1.36.05,3.53-.04,4.12-1.56-.84-.8-2.13-1.51-2.46-2.68-.41-1.44.48-2.75.51-4.14.03-1.38-1.53-2.14-1.98-3.32-.56-1.5.79-3.19,2.21-3.5,2.34-.52,4.51.63,6.49,1.75,1.02.58,1.93.99,3.1,1.25,1.69.38,3.04.21,4.73.02,1.84-.21,4.47-.52,5.94.89.76.73,1.03,1.75.97,2.78-.09,1.6.02,3.04.27,4.63.09.59.14,1.87.67,2.26.39.29.96.16,1.37.07,1.33-.3,3.42-.44,4.74.01,1.13.39,2.12,1.22,2.98,1.98.64.56,1.57.62,2.38.79.39.08.65.03.73.41.14.65-.83,1.55-1.15,2.04-.7,1.1-1.47,2.16-2.17,3.26-.34.53-1.1,1.66-1.13,2.29-.03.73.72,1.16,1.35,1.4,1.26.49,2.65.1,3.92-.16,3.98-.8,7.07-3.67,11.04-4.4,2.74-.5,5.51-.04,8.26-.47,2.6-.41,5.29-1.16,7.65-2.34,2.17-1.08,4.23-2.14,5.89-3.95,1.29-1.42,2.23-2.83,2.81-4.69.98-3.14-.33-6.39.52-9.56.36-1.37,1-2.58,1.74-3.78.68-1.09,1.46-2.07,1.48-3.42-.41-.33-1.28.04-1.72.13-1.17.24-2.56.55-3.77.3-2.56-.53-2.35-3.48-.94-5.1.75-.86,1.61-1.42,2.74-1.56.93-.11,1.81-.08,2.68-.48,2.51-1.15,3.29-4.42,3.81-6.88.21-.98.52-1.97.63-2.96.1-.87.04-1.69.35-2.53.45-1.2,1.19-2.28,1.67-3.47.85-2.06,1.15-4.35,1.09-6.58-.05-1.68-.1-3.35.07-5.02.09-.92.2-1.58,1.01-2.06,1.71-1.02,3.38-.71,5.08.01,1.23.52,1.54.1,1.85-1.11.23-.9.21-1.75.22-2.67.01-1.08.14-2.13.26-3.19.25-2.18-.26-3.87-2.01-5.26-1.22-.97-2.67-1.27-4.11-1.78-1.84-.65-3.67-1.66-5.15-2.93-2.3-1.98-4.32-5.6-3.65-8.7.18-.85.42-1.68.59-2.53.11-.54.13-.57.56-.81,1.85-1.06,3.45-2.38,3.5-4.65.04-1.83-.7-3.44-1.72-4.92-1.03-1.5-2.42-2.76-3.03-4.53-.57-1.64-.23-3.2.49-4.73.43-.92,1.2-1.73,1.49-2.71.44-1.5-1.15-2.2-2.24-2.85-2.95-1.79-6.34-3.03-9.54-4.3-2.11-.84-4.26-1.49-6.39-2.27-2.68-.98-5.3-2.11-7.89-3.29-2.96-1.35-6.01-3.14-7.91-5.86-.71-1.02-1.67-3.15-1.24-4.45.16-.47.55-.79.8-1.21-.44-.46-1.36-.77-1.87-.96-1.91-.7-4.01-1.21-5.99-1.69-5.66-1.35-11.45-2.11-17.24-2.72-2.43-.26-4.92-.52-7.36-.29-1.92.18-4.72,1.2-6.11,2.63-2.36,2.42-3.32,6.03-3.32,9.34,0,.41-.18,1.55.24,1.83.6.4,1.65-.54,2.14-.83.98-.58,2.23-1.15,3.41-.95,1.61.27,2.92,1.29,4.33,2.02,2.11,1.09,4.4,1.7,6.75,2.03.98.14,4.2-.05,3.34,1.88-1.18,2.66-5.04,3.67-7.38,4.76-1.57.73-2.83,1.79-3.88,3.16-1.32,1.72-1.49,3.72-1.49,5.8,0,1.65.43,3.57.25,5.21-.18,1.61-.84,2.6-2.03,3.7-2.61,2.42-5.74,4.17-8.72,6.07-3.25,2.07-6.43,4.24-9.54,6.52-3.95,2.9-8.01,6.21-11.3,9.86-2.69,2.98-5.11,6.59-6.17,10.52-1.31,4.83-1.59,10.43.81,14.96.93,1.76,2.26,3.29,3.34,4.96.9,1.38,1.51,2.96,1.87,4.57.52,2.29.64,4.72,1.91,6.78.95,1.53,2.18,3.2,3.76,4.24Z"/>
        </g>
        <g class="cls-39">
          <path class="cls-15" d="M1102.32,481.65c-5.55,4.47-9.22,9.18-16.32,8.05-4.86-.77-11.87-3.88-13.88-8.83-2.28-5.6,7.48-17.12,13.68-17.39.76-2.87.22-6.26.24-9.25.04-6.77.25-13.77-2.29-20.2-1.68-4.27-4.42-8.97-7.63-12.25-4.07-4.16-9.65-6.07-14.02-9.76-5.28-4.46-4.67-9.79,2.96-8.23,4.46.91,8.38,2.9,13,3.13,2.5.13,5.73-.79,8.18-.21,2.56.61,3.78,3.19,4.8-1.51,2.09-9.58-3.5-18.5-8.55-26.07-4.01-6.01-10.17-12.17-16.35-16.02-3.86-2.41-8.45-2.97-12.33-5.33-4.48-2.73-7.07-7.18-10.33-11.11-8.11-9.78-17.94-17.11-30.48-19.93-25.13-5.65-48.33,5.31-61.99,26.76-8.24,12.94-15.61,28.99-19.45,43.72-1.32,5.05-6.03,25.67,1.79,27.93,5.39,1.56,42.73-23.2,36.98-4.19-1.13,3.74-4.59,6.07-7.39,8.46-4.62,3.94-8.66,7.76-11.7,13.1-4.53,7.97-5.82,17.29-10.38,25.1-5.14,8.8-9.88,8.43-19.42,5.99-8.43-2.16-22.94-9.59-31.9-6.16-5.28,2.02-12.72,15.22-18.39,9.2-4.3-4.56-3.88-12.58-1.52-17.74,6.27-13.71,22.58-12.9,35.38-14.37,7.09-.82,11.5.61,11.93-8.56.28-5.94-.34-11.75.24-17.72.46-4.77,1.17-9.35,1.31-14.14.14-4.9.19-8.71,1.21-13.45.46-2.14.42-2.68,0-4.66-.59-2.76-2.99-5.43-5.09-7.45-7.52-7.23-15.68-21.32-27.09-22.47-8.4-.84-16.01,3.76-23.25,7.25-10.17,4.9-16.73,5.73-27.17.81-5.75-2.71-12.79-8.01-19.32-7.59-4.69.3-9.95,1.81-14.46,3.08-5.86,1.64-11.38,1.9-17.47,1.65-4.37-.18-9.06-1.38-13.4-1.19-6.13.27-12.38,3.86-16.9,7.79-8.9,7.74-14.22,19.56-9.42,30.89,3.17,7.5,13.09,12.82,18.97,17.76,6.46,5.43,14.02,11.01,19.45,17.52,4.21,5.05,14.65,18.44,7.27,24.54-7.29,6.02-35.81,8.24-24.4,22.95,4.48,5.77,7.3,11.89,10.72,18.18,1.54,2.84,2.74,3.85,1.67,7.54-1.03,3.56-5.3,7.21-6.12,11.05-.49,2.33-.56,6.51-.15,8.87.42,2.38,3.04,5.65,1.82,8.25-1.43,3.06-14.38,2.76-17.5,3.01-11.81.94-23.67,10.72-28.05,21.75-6.14,15.47,10.05,26.7,19.2,36.43,9.4,9.99,11.52,22.34,9.84,35.81-1.14,9.11-4.93,17.51-6.61,26.51-2.01,10.78-1.63,21.06.96,31.68,3.28,13.47,13.35,20.19,27.27,20.08,12.56-.1,23.7-10.92,33.91-17.22,7.07-4.36,18.63-13.8,27.74-12.68,6.59.81,9.05,6.45,13.26,10.43,4.69,4.44,10.06,6.51,15.97,3.24,12.52-6.93,23.07-19.95,33.71-29.19,9.61-8.35,21.6-16.04,34.6-17.48,5.53-.61,12.62,1.85,17.91,3,10.03,2.18-.12,10.26,4.58,16.35,1.78,2.31,6.04,3.61,8.37,5.2,2.1,1.43,4.05,3.11,6.13,4.57,3.73,2.61,13.22,7.6,13.58,12.93.24,3.59-4.35,7.3-3.79,11.03,1.28,8.41,20.45,12.74,26.88,15.48,6.53,2.78,12.23,4.95,17.78,9.32,3.8,3,7.68,3.79,7.83,8.79.39,12.86-9.28,25.82-5.17,38.51,2.82,8.68,9.94,12.33,17.72,15.86,9.45,4.28,19.74,8.45,29.65,11.57,5.17,1.63,12.81,5.35,17.87,1.28,9.11-7.31,4.48-27.36,3.45-36.36-1.01-8.78-2.34-17.49-3.55-26.24-1.22-8.82-4.91-23.09,3.2-29.98,5.95-5.06,16.45-6.67,23.44-9.68,9.01-3.88,16.75-8.32,22.73-16.14,11.22-14.66,13.11-39.27-2.5-51.88-11.49-9.27-31.27-12.83-45.32-14.53-5.81-.7-11.37-.18-17.08.97-2.64.53-8.48,3.34-11.06,1.53-2.88-2.02-.87-7.62-.32-10.03,3.3-14.31,12.5-28.92,23.73-38.37,6.24-5.25,12.76-8.77,21.07-6.71,4.91,1.21,9.37,4.36,14.68,3.97,10.68-.79,7.29-21.54,14.98-26.7,6.36-4.27,15.25,3.73,19.17-3.6,2.83-5.29.76-15.34-.73-20.54-2.33-8.12-6.82-14.69-11.39-21.6-3.45-5.21-8.22-11.61-9.01-18.11-1.27-10.34,7.49-18.17,11.41-26.81,1.39-3.07,8.23-19.78,1.46-21.21-5.31-1.12-16.29,10.58-19.25,12.99-10.84,8.82-21.86,17.59-35.79,38.96Z"/>
        </g>
        <path class="cls-37" d="M1080.63,659c2.34-7.09,2.47-11.39,1.38-18.85-.62-4.27-1.35-8.07-1.37-12.38-.01-2.27-.6-3.96,1.53-5.17,2.01-1.14,4.47.43,5.89-1.84-1.01-2.55-2.74-4.21-1.77-7.38,1.27-4.16,6.24-5.31,10.09-5.37,3.67-.06,5.67-.26,8.71-2.58,2.21-1.69,5.46-4.34,8.04-5.05,3.37-.94,6.34.64,9.77-1.37,3.64-2.13,6.65-8.18,7.75-12.03,1.8-6.33,2.31-12.62,3.28-19.05.69-4.56,1.72-6.28,5.84-7.75,2.86-1.02,5.75-2.71,8.4-3.95,4.57-2.13,6.89-6.4,5.7-11.12-.53-2.11-2.56-4.41-.65-6.27,2.24-2.18,6.95-2.74,9.76-3.83,12.28-4.74,23.91-11.21,34.57-18.89,11.96-8.61,24.11-17.33,37.29-23.96,2.57-1.29,5.85-2.89,8.47-3.51,1.35-.32,2.74.23,4.13-.16,1.33-.37,3.15-1.7,4.67-2.25,2.06-.75,8.4-1.99,7.33-4.88-1.57-4.26-7.28-1.74-9.62-.48-2.89,1.56-6.04,2.4-8.66,4.28-4.77,3.43-9.99,6.66-14.83,10.55-4.71,3.79-9.25,7.38-14.56,10.32-4.84,2.68-11.64,7.07-17.26,7.59-.46-3.26,1.7-5.76,2.01-8.71.27-2.53-.66-2.14-3.04-2.09-4.45.08-7.93-.66-10.62,3.42-2.16,3.27-.74,7.46-1.53,11-.99,4.45-5.32,4.62-8.99,6.35-5.38,2.54-8.65,6.31-12.31,10.76-1.39,1.69-1.58,2.12-3.99,2.12-6.09,0-8.06-7.7-9.18-12.45-1.27-5.38-3.72-10.68-7.6-14.77-3.12-3.28-6.76-5.92-9.86-9.26-1.35-1.46-3.45-2.93-3.33-5.14.17-3.24,5.71-8.84,7.88-10.51,1.39-1.07,3.69-1.67,4.33-3.19.26-.62-.22-1.98-.14-2.7.28-2.37,2.07-4.87,3.28-6.87,3.18-5.26,7.7-9.57,11.05-14.7,2.62-4,6.28-10.53,6.41-15.58-.83,1.51-1.95,2.18-3.3,3.45-3.53,3.34-6.89,6.75-10.76,9.73-3.61,2.78-7.18,5.57-11.17,7.8-2.71,1.51-5.62,2.29-7.6,4.8-1.62,2.06-1.47,2.13-4.25,2.12-5.92-.01-11.45-2.23-17.18.42-4.18,1.93-5.03,5.53-8.01,8.69-4.27,4.53-10.05,7.43-15.25,10.7-2.27,1.43-4.65,4.95-7.28,3.49-3.9-2.16-6.15-7.84-9.65-10.72-2.99-2.46-6.86-3.51-10.68-3.97-3.6-.43-4.63-1.87-6.21-5.44-1.35-3.04-2.46-7.51-1.47-10.89.76-2.6,2.77-4.76,3.55-7.45.83-2.9.93-5.85.76-8.86-.19-3.38-1.19-5.16-2.36-7.92-2.49-5.87-3.44-12.14-6.46-17.91-6.02-11.51-14.87-25.42-26.6-31.58-6.14-2.37-12.33-2.7-18.54-1.01-7.52.53-14.59,2.75-21.19,6.68-6.68,3.95-14.31,8.62-17.31,16.02,1.33,1.78,3.69,1.03,5.56,1.31,1.28,2.76-1.54,4.69-3.32,6.31-5.9,5.38-11.93,10.01-17.17,16.12-2.26,2.63-6.54,7.34-3.43,10.67-3.7,3.01-5.75,7.78-10.95,8.95-3.43.77-7.38-.09-10.91.14-7.85.52-14.47,3.64-20.45,8.57-4.37,3.61-8.66,7.49-14.15,9.2-6.31,1.97-13.82,3.08-20.39,2.19-5.62-.76-6.7-4.8-2.3-8.45,3.89-3.23,8.34-3.3,13.19-2.87,4.37.39,9.18,2.06,13.41.52,5.98-2.17,9.12-9.73,12.62-14.55,2.37-3.27,5.94-6.31,7.75-9.88,1.67-3.29.37-7.75.07-11.12-.46-5.19-2.45-12.2-1.26-17.23.57-2.43,1.44-1.91,2.9-3.53,3.4-3.81.56-9.94-1.85-13.34-2.42-3.41-4.61-6.57-6.59-10.29-2.25-4.23-3.99-8.7-7.68-11.97-3.84-3.41-9.04-5.13-14.15-3.94-5.43,1.26-6.79,4.83-11.19,7.34-7.72,4.42-17.44,1.49-25.27,5.21-6.68,3.17-13.92,7.48-21.24,2.65-3.65-2.41-4.58-5.32-6.19-8.89-1.75-3.86-5.64-5.61-9.68-6.65-7.86-2.04-15.56,1.42-23.48-1.36-12.44-4.36-19.87-14.55-26.98-25.09-11.21-16.64-22.45-32.69-37.34-46.3-4.57-4.76-9.74-8.75-15.53-11.95-2.2-2.52-4.35-3.03-6.44-1.52,1.58,5.51,3.8,10.78,6.54,15.82,2.75,5.07,7.68,8.22,10.36,13.05,2.11,3.81,1.6,8.44,2.34,12.68,1.36,7.8,4.56,15.17,11.02,19.93,2.84-5.23,1.89-11.01,3.18-16.7,4.51-1.39,10.74,7.71,13.39,10.7,4.36,4.92,8.93,9.71,12.79,15.04,6.88,9.53,16.51,16.25,20.65,27.64.97,2.67,2.43,6.78.73,9.42-1.54,2.4-5.66,2.87-8.19,3.7-4.76,1.56-7.93,3.53-7.07,8.9.48,3.02,1.81,5.85,2.28,8.84.75,4.78-.17,5.79-2.92,10.54-3.37,5.83-8.89,13.82-5.87,20.73,3.51,8.03,14.36,11.96,21.91,15.26,6.08,2.66,12.97,4.66,17.71,9.54,3.39,3.49,6.38,9.95,8.54,14.36,2.53,5.18,2.47,9.35-1.58,13.85-3.65,4.06-10.06,5.7-13.09,10.16-1.13,1.66-1.75,4.2-2.67,6.01-1.92,3.78-4.9,5.59-8.68,7.21-3.32,1.42-6.71,2.36-10.34,2.74-4.34.46-8.78-1.88-12.94-1.17-4.48.77-4.81,3.62-5.06,7.77-.29,4.85.84,8.95,2,13.66,1.46,5.97,3.17,11.28,3.6,17.39.31,4.34-.08,8.72.29,13.07.35,4.05.67,8.34,3.46,11.52,1.68,1.92,2.67,2.06,2.35,4.51-.46,3.6-4.63,7.12-6,10.46-2.16,5.27-.12,9.26,4.98,11.15,5.54,2.06,11.28,3.87,16.9,5.74,5.49,1.83,13.34,1.36,17.75,5.5,1.39,1.31,4.03,3.49,4.61,5.23.95,2.87-4.45,6.28-5.73,8.76-2.08,4.02.3,6.76,1.71,10.7.95,2.65,1.23,5.16,1.04,7.94-.34,5.11-1.92,10.85-5.92,14.23-4.5,3.8-8.57,7.93-13.28,11.64-2.59,2.04-9.28,9.96-7.48,13.69,1.03,2.14-3.6,13.26-1.79,13.68,3.22.74,12.21-8.03,13.67-10.23,4.42-6.65,8.13-16.09,11.95-22.99,6.54-11.85,27.93-17.63,40.36-21.14.38-.11,7.26-2.34,8.12-.53.91,1.9-7.48,10.45-8.74,12.49,1.75,3.01,8.34-1.3,10.22-2.29,5.58-2.92,10.94-5.96,17.02-7.69,3.31-.95,6.41-1.96,9.83-1.9,1.76.03,4.14-.64,5.52.72,1.14,1.12.5,1.54.05,3.1-1.21,4.14-3.52,6.64-2.5,11.48.98,4.67,3.77,8.57,6.26,12.5,3.61,5.7,3.8,8.47,5.42,14.73,2.77,10.76,11.71,16.97,22.41,18.7,6.83,1.1,13.93,1.22,20.8.19,3.78-.57,7.46-2.63,11.27-2.75,4.05-.13,11.4,3.87,15.11,1.94-1.88-3.46-4.09-6.02-5.08-9.86,9.63-3.81,20.32-3.19,29.88-7.48,2.79-1.25,5.64-3.52,8.68-1.51,1.42,1.46,2.63,3.07,3.64,4.84,2.83,1.45,5.83,1.75,9.02.91,4.57-.64,9.14-.6,13.69.11,1.94.53,3.87,1.08,5.8,1.67,1.5.36,2.91.46,4.02,1.3.68,2.07,1.37,4.14,2.08,6.2,1.99,5.01,4.98,9.28,8.98,12.81,4.43,4.9,9.11,9.55,14.04,13.95,5.54,8.05,8.08,17.01,7.6,26.85,1.78,12.7,3.82,26.37,14.16,35.24,3-3.71-.57-10.74-2.49-14.13-2.21-3.9-4.42-6.54-5.59-10.98-1.06-4.02-1.68-8.14-2.76-12.16-1.47-5.45-4-10.43-5.8-15.76-2.16-6.39-3.73-12.72-7.2-18.59-4.91-8.31-13.62-12.82-22.26-16.64-.29-1.4,1.15-3.13,1.82-4.26,1.37-3.49,3.66-6,6.87-7.55,1.69-1.99,3.64-2.28,5.85-.87,4.14,1.1,7.26,3.55,10.29,6.59,2.53,2.53,3.47,2.4,6.96.8,4.36-2,8.43-4.77,11.34-8.68,4.04-5.4,4.52-13.29,8.39-18.67,1.29-1.37,2.59-2.75,3.88-4.12,2.14.03,3.39-.87,3.76-2.69,1.83-3.18.7-10.38-2.62-9.25Z"/>
        <g class="cls-42">
          <path class="cls-20" d="M1046.32,693.3c3.96-.49,10.21-1.1,11.77,4.08.71,2.37.42,5.98.07,8.32-.21,1.4-.96.95-.77,2.76.08.76.78,2.22,1.08,2.94,1.69,3.97,3.53,7.98,5.24,11.96,1.18-2.25,1.41-4.63,2.01-7.09,1.22-4.98,3.57-10.66,7.72-14,3.47-2.79,7.96-.79,11.98-1.34,3.53-.48,2.43-2.23,4-4.66,1.16-1.81,4.43-3.11,6.25-3.95,4.42-2.05,7.67-1.52,7.78-7.75.14-8.15-7.12-17.17-13.6-21.6-6.4-4.37-14.08-2.05-20.63.54-2.61,1.03-5.25,1.6-7.25,3.76-.99,1.07-1.63,3.59-3.55,3.16-1.1-2.83.92-6.51,1.99-9,2.68-6.24,5.67-11.35,11.71-14.67,4.72-2.6,7.49-2.71,12-.04,2.1,1.24,2.11,1.24,3.93,0,2.23-1.53,2.97-3.39,6.01-3.18,4.3.3,6.45,4.52,8.07,7.9.89,1.85,5.83,15.26,9.59,10.56,2.2-2.75.54-9.16.21-11.93-.6-5.13-.46-9.34.85-14.4,1.62-6.26-.27-8.96-6.43-11.75-4.55-2.06-8.91-4.55-13.47-6.61-2.93-1.33-5.75-1.78-8.59.11-4.54,3.04-7.29,9.22-9.55,13.92-1.39,2.89-3.14,6.82-6.43,7.84-4.23-8.42-5.89-18.16-6.67-27.48-.84-10.07-.76-23.49,5.58-32.03,2.43-3.27,5.42-4.39,9.44-4.66,3.83-.25,7.84,1.59,11.42,1.13,5.96-.76,10-7.68,13.06-11.95,2.67-3.72,5.42-7.35,8.35-10.87,3.15-3.79,6.26-8.31,10.22-11.36,3.44-2.65,8.06-2.74,12.19-2.77,1.39,0,5.14.63,6.72-.08,4.3-1.95,3.35-12.52,3.24-16.37-.28-9.73-4.21-19.13-5.38-28.78-.28-2.3-.57-4.63.43-6.79.81-1.75,2.12-2.04,3.27-3.23,1.18-1.23,2.96-3.33.56-4.4-2.45-1.1-6.23,1.53-8.48,2.02-2.36.51-6.38.46-7.72-2.12-2.41-4.67,5.9-10.28,8.61-12.91,4.61-4.48,6.26-8.99,8.6-14.85,1.39-3.49,2.56-8.47,5.06-11.32-2.03.92-3.47,3.01-5.1,4.47-3.15,2.82-6.39,5.36-9.38,8.38-7.48,7.56-14.77,16.21-24.05,21.66-5.76,3.38-12.35,5.26-18.55,7.67-1.95.76-3.89,1.9-6.05,1.47-3.79-.76-8.59-1.71-12.18-3.44-5.9-2.84-11.92-8.05-16.41-12.71-3.19-3.32-2.29-6.57-2.29-11.07,0-5.79-2.38-16.27,2.92-20.56,5.06-4.09,10.31,4.43,13.86,6.94,4.99,3.52,4.44-3.1,3.74-6.85-1.22-6.54-6.73-11.88-11.9-15.63-2.98-2.17-7.96-2.85-9.23-6.69-1.14-3.45,1.08-2.95,3.3-4.76,2.69-2.2,4.08-5.74,7.29-7.49,3.53-1.92,9.05-1.13,11.54-4.68,4.22-6.01-.82-15.6-4.98-20.02-3.94-4.18-8.81-6.75-13.52-9.84-2.53-1.66-4.72-3.88-7.29-5.45,1.61,2.34,5.49,5.66,3.79,8.8-1.29,2.38-5.8,4.7-7.77,6.47-2.06,1.85-3.72,4.39-5.21,6.7-2.79,4.36-1.85,6.89,1.53,10.2,4.49,4.38,7.77,9.17,9.71,15.25,1.21,3.79,1.81,7.81.25,11.62-1.34,3.27-5.66,7.7-9.51,7.92-4.36.25-6.2-7.92-7.29-10.89-2.55-6.94-3.9-14.16-8.14-20.33-1.96-2.85-3.14-4.4-6.69-4.7-2.89-.24-5.71-.96-8.48-1.85-1.98-.63-3.65-1.64-5.73-1.21-6.23,1.27-11.89,5.21-18.21,6.28-3.01.51-8.6.58-10.94-1.97-1.74-1.89-1.18-5.41-1.08-7.7.17-3.96,1.22-8.12,2.29-11.95,2.21-7.87,6.33-15.6,6.27-23.97-.04-5.27-1.58-11.69-7.21-13.67-3.93-1.38-9.28-.42-12.67,1.77-2.94,1.89-2.81,3.56-4.52,6.09-2.69,3.98-8.73,5.59-12.42,8.22-4.61,3.29-13.67,9.86-14.01,16.21-.11,2.03.83,3.58,1.48,5.47.94,2.72,1.65,5.47,2.25,8.29,1.52,7.24-2.21,13.2-3.95,20.04-.65,2.55-2.37,6.67.18,8.63,4.03,3.09,13.98-6.22,16.54-8.1,4.71-3.45,12.36-10.33,16-2.49,5.28,11.39-3.67,23.59-11.68,30.65-15.49,13.65-33,25.43-47.12,40.59-7.92,8.51-19.02,18.96-13.43,31.39,6.88,15.31,22.32,27.54,34.81,37.94,6.42,5.34,13.03,10.42,19.24,16,8.16,7.32,13.22,15.44,16.67,25.74,2.76,8.23,3.07,17.41,4.76,25.91,2.5,12.59,7.85,23.5,15.2,33.86,4.06,5.73,9.21,11.39,14.58,16.02,8.21,7.08,18.28,9.95,28.44,12.74,10.22,2.81,22.56,5.8,28.54,15.42,1.19,1.92,1.63,3.8,2.5,5.83.52,1.21,1.8,2.26-11.21.33Z"/>
        </g>
        <path class="cls-21" d="M888,471.34c5.03-6.3,12.08-12.82,20.74-13.09,3.18-.1,6.45,0,9.63.07,3.46.07,3.66-1.88,6.43-3.52,1.76-1.04,3.87-1.58,5.8-2.19,2.03-.65,3.76-.32,5.72-.74,2.18-.48,1.4-1.16,1.58-3.34.45-5.27,4.06-10.41,7.3-14.37,13.87-17.01,36.79-27.8,58.82-26.37,10.67.69,21.66,4.19,29.11,12.14,7.04,7.5,10.02,17.57,11.58,27.56,1.18,7.53-.07,15.12-1.08,22.62-.3,2.25-1.24,4.4-1.49,6.51,1.81.76,2.72-.45,4.32-.84,1.86-.45,4.1.09,5.79.95,1.4.71,3.64,2.34,4.76,3.55,1.35,1.46.64,3.08,1.4,4.56,1.06,2.07,4.67,3.16,6.44,4.92,3.52,3.5,1.98,7.66,1.17,11.87,1.21.03,1.98-.67,3-1.2,2.55-1.3,5.25-2.17,7.89-3.25,4.14-1.68,8.2-3.78,12.5-5.04,4.89-1.43,10.71-1.9,15.77-2.21,11.38-.69,23.86,3.74,31.23,12.77,6.45,7.91,8.64,19.95,8.79,29.9.19,12.79-1.4,24.23-7.57,35.6-5.72,10.55-13.06,22.1-23.09,29.13-8.29,5.82-15.74,8.05-25.74,7.42-6.73-.42-12.18-3.07-18.42-4.99-.62,1.45,1.76,4.94,2.09,6.56.74,3.69-2.18,5.68-.06,8.48.74.98,1.92,1.69,2.25,2.94.37,1.42.02,3.77-.03,5.23-.07,2.14-.36,2.79-2.18,4.05-.99.69-3.04,1.34-3.18,2.49,7.75,1.16,11.65,6.87,14.06,14.05,1.21,3.6,1.25,7.25,1.14,11.03-.17,5.54-4.21,10.19-7.73,14.19-1.95,2.22-4.1,3.81-6.59,5.36-4.01,2.49-7.96,5.34-12.04,7.7-7.43,4.31-15.58,7.2-23.84,9.49-10.67,2.95-21.43,4.12-32.45,3.03-6.78-.67-14.62-1.93-20.37-6.06-1.36-.98-3.11-3.73-4.75-4.15-1.72-.44-3.72,1.5-5.19,2.51-5.04,3.44-7.8,9.28-13.21,12.34-5.34,3.02-11.26,3.47-17.23,3.41-5.55-.05-11.45.56-16.95-.1-5.56-.67-10.75-2.33-16.05-4.11-11.44-3.83-24.23-10.54-31.72-20.35-5.5-7.21-8.87-17.14-5.68-26.07,1.09-3.04,4.83-7.29,7.65-9.01,1.59-.97,3.69-.88,5.1-2.04-3.21.89-6.67,1.77-10.04,2.3-4.18.66-8.4.72-12.62.92-6.22.29-12.38,1.08-18.62.96-10.13-.19-19.72-3.41-28.95-7.29-9.94-4.18-21.55-10.42-29.54-17.76-17.54-16.12-26.9-37.74-28.58-61.33-.73-10.25.16-20.14,4.02-29.72,2.43-6.03,9.04-15.68,15.45-18.67,3.37-1.57,6.92-2.62,10.62-1.72.99.24,2.57,1.39,3.56.9,2.8-1.37,1.21-6.89,4.6-8.88,3.22-1.88,6.72-.07,10.08-1.07.14-1.52-2.03-3.36-2.27-5.2-.26-2-.17-4.3,1.27-5.85,3.91-4.23,9.4-1.96,14.04-1.87,1.06-3.67-9.23-9.29-10.39-10.04-11.86-7.73-23.25-13.99-32.69-25.01-13.14-15.33-23.01-39.45-15.34-59.63,4.23-11.15,11.15-21.23,23.31-24.61,11.73-3.26,26.1.92,36.39,6.73,5.23,2.95,9.72,6.08,12.8,11.39.66,1.13,2.31,5.39,3.83,5.93,1.82.66,8.5-6.24,9.34-6.85,6.05-4.36,13.14-7.98,20.52-9.47,8.87-1.78,18.02,2.48,25.03,7.52,5.65,4.06,10.94,9.74,13.5,16.3,3.21,8.2,4.04,20.02,1.62,28.54-4.93,17.31-24.94,30.77-42.46,30.4-7.95-.17-15.57-1.84-22.59-5.75-3.58-1.99-8.68-4.97-8.82-9.76-1.84,6.25-3.3,23.2,5.08,25.89-.37-.58-.57-1.22-.59-1.9,2.47-1.75,5.16-1.78,7.79-.31,2,1.11,2.85,3.34,4.63,4.42,5.7-4.83,14.89-5.68,22-6.41,5.79-.59,9.42.07,18.61,7.5Z"/>
        <path class="cls-12" d="M1119.04,468.09c6.63-2.55,11.67-5.79,17.3-10.24,2.42-1.92,11.07-8.68,8.61-13.15-2.74-4.97-10.8-1.49-14.95-2.8-.25-1.83,2.21-3.89,2.87-5.51,1.4-3.41,2.63-6,5.13-8.92,6.05-7.08,13.88-13.26,21.66-18.27,9.71-6.25,19.84-11.99,31.09-14.98,8.8-2.34,18.03-3.45,27.12-3.02,4.29.2,11.11.25,15.12,2.32-1.91,2.23-2.88,5.41-4.98,7.81-.75.86-2.71,2.1-2.68,3.36.04,1.61.28,1,1.49,1.72,1.88,1.12,2.78,1.24,3.93,3.11,1.16,1.88.85,3.23,1.33,5.37,3.59,16.06-7.98,33.12-20.95,41.63-6.64,4.35-14.52,5.61-22.25,6.14-6.01.41-12.57.33-17.62-3.37-2.82-2.07-5.25-6.04-5.59-9.51-.15-1.5.23-2.92-.16-4.38-2.63-.25-7.68,6.67-9.38,8.64-1.96,2.27-3.98,4.08-6.61,5.67.63,2.59,4.7,1.88,6.01,4.34-1.23,1.26-5.41,2.2-7.14,2.66-5.72,1.52-11.26,3.82-16.87,5.74-3.56,1.22-8.68,3.51-12.51,3.28-2.02-.12-3.06-1.2-5.24-1.21,1.19-1.3,2.58-2.36,5.26-6.43Z"/>
        <path class="cls-34" d="M736.13,409.51c-2.43-3.82-4.32-8.61-7.5-11.89-2.65-2.74-4.81-5.86-7.44-8.58-1.57-1.63-2.27-1.85-4.34-2.62-.81-.38-1.65-.69-2.52-.91-.75.04-1.08.43-1,1.2-1.45,1.36-2.5,3.1-4.95,3.48-3.64.57-9.25-5.62-11.23-7.84-4.83-5.4-9.04-11.19-14.16-16.37-4.6-4.65-9.15-8.67-15.51-10.68-4.01-1.27-10.99-2.78-13.59,1.97-2.42,4.4,1.56,14.27,2.76,17.76,3.94,11.49,8.66,24.06,17.14,33.06,5.13,5.44,17.12,12.98,22.33,3.4,2.12-3.91,2.37-6.85,1.12-10.49,1.03.06,2.38,1.61,3.28,2.22,2.08,1.4,4.07,3.3,6.32,4.44,5.46,2.76,5.26-5.72,6.48-9.07,1.19-3.24,4.88-2.28,7.11-1.08,4.03,2.18,7.13,5.57,10.32,8.79,1.53,1.55,7.67,5.94,5.37,3.21Z"/>
        <path class="cls-33" d="M697.09,357.45c-3.94-2.4-7.29-3.95-9.95-7.58-3.29-4.49-6.58-9.02-9.51-13.75-.38-.62-6.72-10.74-1.17-10.04.77.1,4.51,3.61,5.2,4.5.96,1.24,1.63,3.2,2.54,4.51,4.63,6.72,9.04,13.54,14.57,19.68,1.63,1.8,2.75,4.04,4.29,5.96.81,1.01,3.67,2.91,3.6,4.19-.67.2-.97-.12-.89-.95l-8.68-6.51Z"/>
        <path class="cls-23" d="M831.59,663.34c-2.34,2.38-4.54,4.94-7.33,6.72-1.75,1.11-3.46,2.19-5.13,3.49-4.19,3.28-10.7,5.47-14.34,9.39-3.4,3.67,2.32,5.41,4.06,8.06,2.55,3.87,2.7,6.65-.16,10.82-2.92,4.26-8.32,5.81-12.64,8.2-4.95,2.74-9.65,6.47-14.31,9.7-5.57,3.87-11.09,8.17-15.54,13.31-4.56,5.28-11.61,14.42-10.52,22.02,1.11,7.73,10.44,8.62,17.01,9.09,25.11,1.79,54.15-8.39,66.11-32.1,2.5-4.95,2.48-10.27,2.54-15.61.02-2.03.5-2.73-1.56-3.24-3.76-.93-12.89-.62-15.91,1.81-.2-2.19,2.04-3.7,3.28-5.15,2.76-3.23,5.24-6.57,8.18-9.64,3.17-3.31,6.07-5.45,10-7.7,1.17-.67,3.15-1.69,3.52-2.91-2.13-.63-4.69-.41-6.93-.76-4.5-.7-8.94-.54-13.41-1.38-3.08-.58-8.99,1.14-9.79-3.45-.39-2.27,2.76-5.08,4.14-6.55,2.17-2.31,5.02-4.29,6.61-7.06,1.39-2.43,2.19-4.57,4.27-6.64,5.57-5.53,13.06-10.06,19.54-14.5l-21.69,14.1Z"/>
        <path class="cls-31" d="M784.95,670.93c-4.61,3.29-9.05,6.66-12.86,10.89-.36.4-4.09,3.99-3.34,5.5.79,1.58,2.97.89,4.28.92,2.34.05-5.89,12.36-4.38,13.56,7.73,6.13,27.19-39.41,29.33-44.3l-13.04,13.43Z"/>
        <path class="cls-26" d="M777.99,516.9c-7.34,15.32-12.57,32.36-10.68,49.61,1.21,10.96,3.8,23.46,9.75,32.95,3.45,5.51,8.69,13.14,14.93,15.84.54-1.97.09-4.69.09-6.75,0-3.68.08-7.37-.03-11.05-.23,1.17.66,1.83,1.06,2.77,1.45,3.36,2.77,6.73,4.83,9.92,3.04,4.71,7.05,7.3,11.1,10.94,1.36,1.22,2.84,3.72,4.58,4.1-.09-1.37-3.22-4.23-3.9-5.42-2.24-3.95-3.9-8.39-4.64-12.88,3.74,7.23,11.19,19.04,18.16,23.71,8.52,5.7,19.32,10.03,29.39,11.57,14.88,2.28,31.72-2,44.44-9.98,12.64-7.93,24.42-20.63,25.25-36.2,1.35-25.14-9.34-51.22-30.29-65.9-3.24-2.27-12.2-7.41-16.38-3.54-1.3,1.2-.85,3.02-2.32,4-.34-4.45,7.29-3.22,9.51-4.15-3.56-3.11-13.04-2.98-16.82-.98-1.89-4.65,6.18-9.81,9.56-11.16,2.88-1.15,6.48-1.67,9.58-1.8,2.1-.09,4.42.43,6.39-.19-1.69-1.45-5.96-2.39-8.17-2.82-8.82-1.72-20.17.17-28.39,3.17-10.77,3.94-19.83,13.02-27.76,21.06-2.88,2.92-6.13,8.24-9.79,10.21.86-3.37,3.08-5.99,5.15-8.72,7.92-10.41,15.82-20.96,26.58-28.61,7.97-5.67,16.91-9.56,26.63-10.88,1.77-.24,10.96.47,11.69-1.31-1-1.11-2.36-1.25-3.74-1.59-4.22-1.04-8.42-2.53-12.77-2.96-6.86-.68-14.95.76-21.6,2.13-8.42,1.74-17.53,4.71-24.76,9.51-10.57,7.01-19.07,16.2-22.92,28.34-.68,2.14-1.2,6.88-3.13,8.3-1.23-1.08-1.82-3.26-2.22-4.81-1.83-6.98,2.23-14.97,3.22-21.66.23-1.58,2.34-6.74.59-7.81-1.04-.63-2.95,1.03-3.82,1.5-3.49,1.9-16.63,7.89-18.37,11.52Z"/>
        <path class="cls-26" d="M908.16,485.44c-.64,4.33-1.56,8.39-.94,12.74.53,3.72,1.28,7.42,1.91,11.13,2.7,16,8.6,31.78,18.11,45.04,9.65,13.45,23.88,22.97,39.71,27.57,5.55,1.62,10.99,2.28,16.75,2.32,2.1.01,4.92.44,6.9-.28.01-1.96-4.04-3.71-5.38-4.62-2.35-1.6-5.65-3.7-7.2-6.17,2.82,4.02,8.81,4.02,13.04,2.86,1.71-.47,4.47-1.06,3.14-3.02-.93-1.38-4.34-1.11-4.55-2.77,1.14.24,1.73.74,3.08.94,5.63.86,12.43-.83,17.71-2.48,18.81-5.89,37.79-19.13,42.91-39.03,4.93-19.17-.6-41.96-11.52-58.2-3.38-5.03-7.36-9.34-12.11-13.08-.9-.71-2.04-1.87-3.1-2.13-.31,2.47-1.53,6.34-3.47,8.13-1.42-1.04-1.26-3.42-1.9-5.01-.62-1.53-1.08-3.05-1.95-4.47,2.07,2.81,3,8.53,3.6,11.7,1.59,8.3,2.21,17.11.34,25.41-.78,3.48-1.68,7.7-4.24,10.41-3.55,3.78-9.35,4.6-14.2,5.2-19.31,2.4-42.49,3.27-56.61-13.04-14.03-16.2-2.83-36.93,11.98-48.24,14.78-11.29,32.5-11.6,48.94-5.29,2.96,1.14,5.4,1.5,3.56-2.22-1.91-3.87-6.06-6.06-9.85-7.75,3.14.22,6.59,1.66,9.48,2.78,2.01.78,3.97,1.62,5.79,2.77.8.51,2.84,2.48,4.05,2.3,3.69-.55,1.18-6.68.57-8.33-2.16-5.87-5.46-11.69-11.43-14.48-5.41-2.54-12.69-2.62-18.36-1.38-11.91,2.6-25.57,8.26-35,15.97-9.32,7.63-16.88,17.89-21.76,28.85-1.73,3.89-3.22,7.67-4.24,11.76-.26,1.03-.37,1.93-.99,2.86-1.83-1.62-1.78-5.1-3.2-7.2-1.73-2.55-3.71-4.67-6.98-4.32-2.68.28-7.89,3.14-10.1,4.19-3.74,1.77-9.18,4.08-11.33,7.78-2.1,3.6,3.83,9.87,7.57,9.91.06.29.13.59,1.27.88Z"/>
        <path class="cls-24" d="M955.89,475.68c1.88,7.07,2.48,9.18,7.18,14.35,4.85,5.33,12.8,10.02,20.18,10.61,7.72.61,14.25-2.14,20.02-7.11,1.22-1.05,7.23-5.44,6.71-7.98-.82.21-1.24.68-1.96,1.19-2.35,1.69-3.65,2.47-6.6,3.09-4.83,1.01-9.54,1.21-14.4.47-3.69-.47-7.33-1.23-10.92-2.28-4.92-1.65-8.77-4.68-20.21-12.35Z"/>
        <path class="cls-26" d="M889.72,663.88c.24-9.29,4.53-17.88,9.99-25.24,2.1-2.83,4.29-5.66,6.95-8,.48-.42,1.31-1.3,1.96-1.39-.15.88-1.23,2.25-1.68,3.16-.54,1.12-.65,2.71-1.41,3.6,1.19-1.17,1.79-2.87,2.7-4.25,2.11-3.21,5.67-6.27,8.6-8.61,4.36-3.49,8.95-6.58,13.94-9.11,10.49-5.33,23.29-8.38,34.85-5.21,11.01,3.02,21.33,12.52,26.93,22.38,3.34,5.89,6.95,12.88,7.78,19.72.17,1.37.52,4.04-.47,5.26-1.21,1.5-3.71,2.47-5.34,3.28-.09-1.46-1.88-2.6-1.67-4.24,1.11.27,2.46,3.78,1.98,4.81-.66-.13-1.17-1.55-1.58-2.15-1.88-2.69-3.06-5.95-5.42-8.28-2.39-2.37-5.12-4.9-7.98-6.69-1.13-.71-4-2.89-5.37-2.29,1.02,1.42,2.07,2.71,2.95,4.27,2.22,3.94,3.24,9.68,3.23,14.15-.02,11.93-10.7,22.3-21.62,25.56-6.41,1.91-13.35,2.02-19.92.94-6.28-1.04-12.79-2.66-16.9-7.87-3.89-4.94-4.67-10.78-2.93-16.72,1.17-3.98,3.25-6.77,5.53-10.06-2.16.44-4.51,2.9-6.08,4.32-1.49,1.35-2.91,2.98-4.01,4.67-.43.65-.68,1.81-1.59,1.77-.5-1.87,1.14-5.6-1.51-6.14-1.72-.35-3.82,1.17-4.75,2.49-.94,1.33-1.27,3.53-2.38,4.64-.98-.71-.94-3.08-1.09-4.06-.18-1.2-.21-2.79-.78-3.87-1.16-2.17-2.12-.41-2.85,1.04-2.06,4.05-3.12,10.33-3.07,14.83.03,2.64.34,5.68.66,8.33-.49-.99-1.14-1.84-1.6-2.87-2.03-4.52-2.86-9.55-6.04-12.18Z"/>
        <path class="cls-24" d="M928.77,607.47c5.45-7.01,13.81-11.01,22.64-11.82,4.8-.44,12.39.13,15.75,4.19-.83-.12-1.42-.71-2.18-1.04-1.79-.78-4.12-.89-6.02-1.02-3.39-.23-6.32.67-9.59,1.51-2.93.73-5.86,1.47-8.79,2.23-3.26.97-6.3,2.41-11.82,5.96Z"/>
        <path class="cls-26" d="M986.26,616.15c4.25,3.5,7.91,7.39,11.41,11.64,5.14,6.24,9.29,14.98,9.79,23.18.3,4.88-.86,9.94-2.24,14.61-.3,1.02-1.4,2.19-1.52,3.1,2.46-.58,3.99-5.79,4.7-7.78.51-1.35.88-2.74,1.11-4.17.12-.86.14-1.71.07-2.57.13-.66-.12-1.17.68-1.47,2.45,2.55,1.34,7.2.8,10.16-.33,1.8-1.03,5.1-.34,6.9.37.97,1.5,1.77,2.31,2.39,1.83,1.42,3.85,2.64,5.75,3.96,6.28,4.36,13.44,4.29,20.46,1.66,10.78-4.03,18.68-13.77,22.15-24.58,2.61-8.12,3.41-17.32-2.68-24.02-1.65-1.81-3.51-3.03-5.71-4.08-.72-.34-1.89-1.2-2.69-.68.56,1.22,1.02,2.69,1.45,4.06.79,2.54.64,4.63.02,7.21-.66-.18-1.8-1.39-2.31-1.86-.82-.75-1.8-2.15-2.91-2.4-.05.9.56,2.28.76,3.19.57,2.63-.8,5.05-2.36,7.1-.28.37-1.34,2.57-2.01,2.58-.51,0-1.03-1.16-1.45-1.43-.41-.25-1.06-.23-1.52-.38-1.19-.39-2.37-1.16-3.28-2.02-4.28-4.09-4.55-11.83-2.24-16.92,1.65-3.64,4.04-4.18,7.59-2.66,1.51.64,2.93,1.75,4.35,2.34.83-2.13-2.74-6.89-4.19-8.37-1.38-1.41-3-2.29-4.81-3.05,2.22.1,4.29-.01,6.48.63,4.11,1.2,8,3.7,10.72,7.04.88,1.07,2.48,4.48,4.17,4.03,1.27-.33,1.34-3.02,1.47-4.04.48-3.74.4-7.58.16-11.33-.53-8.16-3.36-16.27-9.06-22.29-7.15-7.56-19.05-7.23-28.3-5-9.92,2.39-20.94,6.93-27.31,15.33-2.43,3.2-5.81,8.27-9.45,20Z"/>
        <path class="cls-24" d="M1036.7,561.37c-1.28.38-2.77.63-3.95,1.27-1.88,1.01-3.57,2.61-5.25,3.92-2.06,1.61-4.02,3.34-5.99,5.07-.73.64-2.48,1.74-2.77,2.77,2.64-.24,5.25-2.21,7.9-2.79,3.91-.86,7.93.02,11.8-1.01,1.27-.34,3.25-.44,3.68-1.9.56-1.88-1.3-3.29-5.41-7.33Z"/>
        <path class="cls-26" d="M1086.05,504.43c-3.52,1.02-5.43,1.55-8.49,3.78-5.16,3.77-8.8,8.74-12.15,14.1-3.6,5.75-6.05,11.68-7.6,18.3-.93,2.9-1.24,5.85-.93,8.86.5,2.16,1,4.32,1.5,6.48.72,2.91,1.97,6.26,3.78,8.69.99,1.33,2.61,2.6,3.85,3.68.9.77,1.14,1.19,1.73,2.15,1.79,2.9,4.63,4.82,7.88,5.63,5.47,1.36,9.81.51,14.85-2.06,4.29-2.19,7.49-5.27,10.51-8.94,3.14-3.83,5.72-8.51,6.23-13.52.2-1.96-.52-3.56-.48-5.38,2.34-.03,4.03,4.66,4.5,6.3.5,1.73.27,3.38.32,5.14.02.84-.24,2.14.99,2.06.24-1.9,1.46-3.78,1.96-5.64.22-.83.49-3.19,1.26-3.51,1.11,2.87.78,6.3.23,9.24-.68,3.68-2.04,7.06-3.75,10.37-1.94,3.75-4.62,8.51-8.01,11.2-6.73,5.35-14.82,6.3-23,4.36-2.74-.65-5.32-1.57-7.93-2.63-1.49-.61-3.47-1.81-5.12-1.6-.58,1.86,1.2,4.06,2.17,5.46,2.99,4.3,7.65,7.85,12.74,9.27,16.51,4.62,34.08-6.5,43.12-19.67,5.27-7.68,8-16.87,9.63-25.99,1.82-10.22,1.35-21.93-3.06-31.41-3.99-8.58-12.3-14.95-21.75-16.35-9.31-1.38-18.33.47-24.97,1.63Z"/>
        <path class="cls-24" d="M1050.8,544.02c-1.29,2.42-2.33,3.78-2.6,6.44-.54,5.44-.29,11.11.19,16.54.46,5.12,1.36,10.27,3.92,14.81.47.84,2.13,4.37,3.31,4.56.36-.91-.62-2.31-.88-3.04-1.18-3.3-1.27-7.2-1.9-10.61-1.41-7.65-2.09-14.97-2.05-28.7Z"/>
        <path class="cls-24" d="M892.97,487.07c-.97,3.57-1.26,5.63-1.05,9.32.4,7.08,1.93,14,4.07,20.74,1.75,5.5,3.74,11.75,7.78,16.08.75.81,3.71,2.39,3.93,3.65-.12-1.21-.68-2.52-1.04-3.61-1.24-3.81-2.54-7.6-3.9-11.37-1.91-5.29-3.41-10.76-4.47-16.28-.48-2.74-.95-5.49-1.43-8.23-.67-5.78-.7-11.56-3.88-10.29Z"/>
        <path class="cls-26" d="M817.04,452.36c-.77-4.92-.6-9,.73-13.95,3.41-12.75,10.56-24.11,20.08-33.2,7.34-7.01,15.9-13.61,26.1-15.52,2.69-.5,5.25-.68,7.97-.39.83.09,1.63.23,2.47.15-1.3.02-2.11-.03-3.31.49-1.07.47-5.05,2.11-4.64,3.79.47.05,1.61-.33,2.09-.47,1.29-.37,2.22-.61,3.56-.29,1.48.36,5.55,2.19,5.66,3.97-1,.28-2.24.1-3.28.1-1.57,0-3.85.43-5.33-.12.25-1.23,3.23.18,3.79.38,5.73,2.01,10.45,6.01,12.08,12.09,2.08,7.75,1.91,15.85-.76,23.45-2.97,8.43-12.92,14.67-21,17.13-4.14,1.26-8.19,1.65-12.43.65-3.92-.92-8.44-4.4-10.55-7.82-3.51-5.67-2.73-11.89.61-17.52.28-.47,5.02-5.87,6.02-3.52.29.68-1.46,2.18-1.77,2.6-1.42,1.92-1.55,4.64-1.52,6.93.03,1.53.29,2.57,1.79,1.71,1.12-.64,2.57-3.04,4.23-2.92.77.05,1.09.87,2.13.65,2.74-.56,3.31-5.75,3.2-7.84-.19-3.66-2.63-9.36-6.69-10.19-2.67-.55-5.43.86-7.78,1.9-4.4,1.95-8.14,4.75-11.7,7.95-9.54,8.58-15.73,22.4-11.73,29.81Z"/>
        <path class="cls-26" d="M772.57,381.85c-1.96,3.52-2.99,5.84-3.72,9.87-1.18,6.55-.71,13.47.31,19.99,1.57,10.1,4.3,20.56,12.11,27.63,5.65,5.11,12.24,8.14,19.46,3.89,6.47-3.81,10.42-11.54,13.42-18.14,1.94-5.04,3.56-10.17,4.86-15.41.98-3.03,1.57-6.12,1.76-9.28-.19-1.37-1.64-4.03-3.08-4.39-.51,1.64.25,2.23-1.12,3.71-1.3,1.41-3.19,3.46-5.32,3.32,1.35-1.05,1.79-2.64,1.97-4.33.31-2.86-1.68-5.27-1.62-8.04.04,1.48.02,2.98,0,4.46.15-1-.22-2.02-.44-2.97-1.26-5.34-2.67-10.46-6.61-14.54-5.14-5.32-12.84-8.26-20.01-5.42-7.3,2.89-10.86,10.1-11.99,9.65Z"/>
        <path class="cls-13" d="M934.19,478.93c-3.94-3.21-7.73-7.42-13.08-7.67-1.57-.07-6.29-.71-7.09,1.16-1.2,2.82,7.75,4.89,8.15,7.39-3.37.56-4.97,1.17-7.06,3.89-2.5,3.25-3.02,7.06-3.48,11.08-1.01,8.74-.02,17.61,1.76,26.17,3.47,16.72,13.83,36.09,31.51,41.23,4.19,1.22,9.38-.11,13.12-2.15,1.22-.67,3.36-3.32,5.05-2.95-1.98-1.68-4.59-3.4-4.85-6.18,1.91,1.98,4.43,5.39,7.16,5.99.83-1,2.12-1.78,2.5-3.03.45-1.52-.62-2.82,1.06-3.99-.67,2.83,4.62,6.31,6.55,7.5,10.22,6.3,23.35,1.44,32.46-4.72,7.14-4.83,14.07-10.53,18.38-18.1,2.57-4.51,4.44-9.42,6.7-14.09,2.06-4.26,3.07-6.9,3.14-11.5.27-19.77-12.47-46.28-31.96-53.88-1.19-.46-1.29-.83-2.74-1.09-1.81-.32-3.79.16-5.53.56-4.15.94-7.72,2.68-10.69,5.78-.93.98-1.96,3.08-3.17,3.3.35-2.18,12.14-7.12,4.59-8.61-3.8-.75-9.7,1.69-12.9,3.46-3.66,2.04-7.8,5.94-10.37,9.31.19-6.95,4.45-12.82,8.75-17.93,1.26-1.5,12.27-11.46,10.22-14.8-2.37-3.85-14.25,2.67-16.32,3.68-6.1,2.97-11.1,6.82-15.8,11.69-9.3,9.64-13.28,23.13-16.04,28.52Z"/>
        <path class="cls-18" d="M1038.32,477.85c3.36,12.1,3.56,23.5,2.46,36-.12,1.31-3.65,17.69-.39,18.44,1.08.25,3.74-3.02,4.44-3.82,3.18-3.63,4.72-9.02,5.29-13.72,1.87-15.44-5.69-28.23-11.8-36.89Z"/>
        <path class="cls-18" d="M1018.8,552.7c-2.29,2.3-4.56,5.27-7.16,7.2-2.13,1.58-5.47,2.66-7.73,3.64-1.97.85-9.56,2.9-9.96,5.2,1.09.52,2.06.29,3.17.05,4.29-.92,8.96-2.36,12.94-4.16,8.73-3.94,13.12-10.97,16.33-19.53l-7.59,7.59Z"/>
        <path class="cls-13" d="M1057.85,520.15c-3.35,4.95-8.05,9.56-10.59,15-3.25,6.93-5,14.43-5.61,22.05-.48,5.93-.24,11.7,1,17.51.29,1.38.72,7.1,3.06,7.29.78-3.49,1.8-6.47,3.23-9.83.76-1.79,1.42-6.61,3.81-4.62,2.19,1.83.41,6.86,2.93,8.57,1.83-1.55,2.1-5,3.53-7.04,2.23.7,4.41,2.93,6.48,4.25.78.5,3.67,2.2,4.69,2.12,2.3-.17,2.08-1.45,2.42-4.16.73-5.83.29-11.76,1.07-17.61,1.5-11.23,6.89-21.46,13.96-30.18,2.87-3.54,5.89-6.75,9.27-9.79,1.4-1.26,2.9-2.1,2.96-4.17-4.75-2.79-8.46-4.28-14.19-3.54-20.34,2.64-33.24,20.78-41.03,38.01l13.02-23.86Z"/>
        <path class="cls-13" d="M1016.94,571.1c-13.21,4.48-26.13,14-28.4,28.64-1.18,7.63-.72,15.9,2.4,23.06.91,2.09,1.94,4.26,3.22,6.17.56.84,1.33,1.53,1.8,2.43,1.5-.11,3.77-3.95,4.59-4.8,1.26-1.29,2.84-2.62,4.6-3.16.95-.3,2.97-1.04,3.94-.68,3.33,1.22-1.41,6.69-.75,8.62.77-.27,1.71-.89,2.43-1.39,2.59-1.83,4.56-3.64,7.63-4.74,2.38-.85,4.93,0,7.18-.77-.85-2.58-4.23-4.63-6.73-4.97.32-1.69,5.82-2.44,6.92-2.44,1.95,0,4.16.42,6.06.87,1.01.24,2.05.75,3.08.35-.19-3.17-4.86-5.56-7.23-6.63-2.84-1.3-5.79-2.42-8.89-2.68-.07-1.79,5.78-2.97,6.8-3.18,6.65-1.32,12.95,1.53,19,3.9,2.83,1.16,5.69,2.24,8.59,3.23,1.99.84,4.07,1.24,6.22,1.19,3.95-.52,4.79-3.73,5.23-7.14,1.62-12.61-6.14-25.14-17.17-30.94-11.34-5.95-29.16-8.3-30.51-4.93Z"/>
        <path class="cls-18" d="M980.29,591.75c-2.28,1.05-3.16,1.23-4.59,2.81-1.86,2.06-2.66,4.71-3.11,7.41-.37,2.27-1.2,6.79.76,8.67.51-.35.66-.98.87-1.53.98-2.57,2-5.06,3.28-7.5,1.44-2.77,3.06-5.35,5.11-7.71,1.28-1.48,3.05-2.74,4.19-4.31l-6.51,2.17Z"/>
        <path class="cls-18" d="M925.21,575.52c-3.62.09-5.25.34-8.25,2.19-4.11,2.54-7.31,5.85-10.26,9.64-4.37,5.63-8.77,12.07-10.72,19.03-.64,2.27-2.35,7.06-.62,9.15,1.37,1.65,2.94-.07,4.21-1.24,3.32-3.05,5.95-6.52,9.48-9.42,3.9-3.21,8.15-6.01,12.73-8.14,5.38-2.51,11.17-2.96,16.99-3.42,3.43-.27,6.62-.1,9.98.66,1.28.26,2.53.59,3.78.98.82.27,1.64.5,2.49.67,2.86-.88,2.81-7.07,2.1-9.13-2.31-6.67-9.24-11.21-15.6-13.38-1.64-.56-7.43-2.76-8.59-.11-.67-.21-.89-.9-1.49-1.3-.77-.51-1.74-.23-2.41-.91.91-.36,2.23-.16,3.21-.16,3.03-.02,6.23.41,9.12,1.39.74.25,2.71,1.84,3.26.75.64-1.27-2.97-4.54-3.5-4.98-3.66-3.03-8-4.92-12.64-5.77-8.71-1.61-18.72-.28-26.36,4.2-4.99,2.92-9.42,6.51-10.22,12.5-.1.78.53,3.41-.65,3.46l33.95-6.67Z"/>
        <path class="cls-13" d="M847.41,531.54c-5.99,5.07-10.35,11.28-12.22,19.04-2.37,9.84-1.29,19.66,3.81,28.49,6.76,11.69,19.33,21.02,33.39,18.02,0-.74-.52-.95-1.01-1.4-2.41-2.26-5.51-3.83-7.95-6.11-.79-.74-4.18-3.9-3.63-5.5.44-1.29,1.31.06,1.71.62,1.41,1.98,3.69,4.09,5.73,5.41,1.16.75,9.33,3.81,10.04,1.67.33-1-2.34-4.12-3.13-4.42,1.65.04,3.6,1.17,5.22,1.54,1.28.29,5.22,1.96,6.57,1.18,1.3-.75.89-4.57,1.05-5.67.64-4.23,3.74-9.17,6.68-12.19,2.75-2.82,6.09-4.63,9.76-6.04,4.68-1.79,9.72-3.18,14.68-3.92.07-.01,3.25-.14,3.49-.43.32-.39.08-1.06.01-1.46-.34-2.09-2.32-4.84-3.52-6.48-3.55-4.84-8.51-9.17-13.61-12.29-5.07-3.09-10.71-4.96-16.33-6.74-7.84-2.5-16.36-4.64-24.66-4.21-6.7.34-12.66,2.47-16.44,8.3-1.61,2.87-2.88,5.88-3.79,9.04-.59,1.16-.85,2.37-.76,3.61l4.88-20.07Z"/>
        <path class="cls-18" d="M866.4,524.49c7.93,1.65,15.96,2.85,23.73,5.38,4.23,1.38,8.19,3.13,12.2,5.04,1.23.59,2.65,1.53,4.07,1.61-1.58-1.32-2.74-3.2-4.26-4.62-3.13-2.92-6.74-5.25-10.53-7.21-9.08-4.7-19.88-6.44-25.21-.2Z"/>
        <path class="cls-18" d="M799.69,535.34c-2.04,3.75-4.18,6.44-4.74,10.56-1.33,9.7-1.07,21.06,1.28,30.53.8,3.21,5.9,25.5,10.94,23.97.61-1.43-.31-2.97-.84-4.28-1.73-4.35-3.56-8.67-4.54-13.28-1.66-7.81-2.94-16.31-2.2-24.26.93-10.04,4.07-19.32.1-23.24Z"/>
        <path class="cls-30" d="M921.86,668c-.05-2.46-.26-4.84.38-7.21.82-3.01,2.69-5.98,4.24-8.64,6.15-10.54,18.37-18.88,30.19-21.69,4.31-1.03,8.45-1.32,12.8-.39,4.33.93,7.76,3.22,11.02,6.14,1.6,1.43,6.69,5.36,6.4,7.87-1.45-.22-14.34-5.13-14.33-3,2.19.27,5.7,2.15,6.87,3.83.45.65,3.23,5.59,1.03,5.84-1.01.11-2.35-2.38-2.89-2.98-1.14-1.25-3.83-3.86-5.74-2.77.19.66.74,1.07,1.26,1.58,2.79,2.68,4.58,4.23,5.63,8.04,1.27,4.61,1.31,8.89-.4,13.4-2.66,7.02-7.94,14.91-15.03,18.03-11.76,5.19-26.15-.94-30.79-12.95-1.7-4.41-1.54-8.73,1.68-12.37.63-.72,2.7-1.89,2.78-2.73-.72.03-.64.49-1.14.8-.77.48-1.49.71-2.35,1.17-1.62.88-2.43,2.43-3.66,3.74-1.09,1.17-1.88,1.8-2.73,3.08-.91,1.37-2.04,2.04-2.37-.08-.25-1.59.63-3.48,1.23-4.88,1.71-4.03,4.49-7.34,7.51-10.45l-11.57,16.63Z"/>
        <path class="cls-18" d="M986.98,654.3c-1.34,5.63-2.39,11.82-4.47,17.22-1.04,2.71-2.32,5.33-3.43,8-.43,1.02-1.44,2.96-1.42,4.23,2.34-.79,5.34-3.68,7.05-5.32,5.9-5.64,4.45-15.51,2.27-24.14Z"/>
        <path class="cls-30" d="M1063.6,636.9c-1.94-.52-3.86-1.1-5.77-1.73-2,.57-3.91,1.36-5.74,2.37-7.07,3.79-13.12,9.15-18.09,15.45-3.88,4.93-6.29,9.7-8.36,15.49-.83,2.33-2.05,4.59-1.88,7.13,2.04-2.73,4.9-5.35,8.03-6.84,2.03-.97,4.42-.92,6.59-1.31,1.12-.2,3.64-1.43,4.75-.8-.96,3.29-5.72,4.82-6.95,7.69,1.33.59,3.03-.14,4.33-.46,7.15-1.75,14.39-4.05,19.84-9.22,4.94-4.68,9.29-11.69,8.67-18.72-.51-5.81-4.13-7.44-5.42-9.05Z"/>
        <path class="cls-18" d="M1067.97,639.83c2.74,6.41,3.52,13,1.51,19.86-.83,2.85-1.79,6.46-4.51,8.04.98-.88,2.12-1.16,3.09-2.17,2.38-2.49,4.21-5.9,5.45-9.06,1.19-3.04,2.32-7.5,1.57-10.79-.94-4.1-4.12-7.21-7.83-8.78l.72,2.89Z"/>
        <path class="cls-30" d="M1040.46,638.35c-2.94,2.76-5.73,4.98-8.37,8.06-3.17,3.71-5.77,7.71-8.38,11.81-.87,1.37-2.97,6.21-4.95,6.83-1.57.49-2.94-1.03-3.99-2.07-3.06-3.04-3.75-6.84-2.67-11.01,1.62-6.27,6.41-10.35,12.07-12.91,4.41-1.99,8.68-2.98,13.42-1.49,1.32.42,3.67,1.12,2.86.78Z"/>
        <path class="cls-18" d="M1123.65,551.61c-3.48,6.61-5.67,13.77-9.85,20.02-2.55,3.82-5.29,7.54-8.29,11.03-.85.99-3.27,2.87-2.79,4.33.88.31,1.42.12,2.3-.17,2.23-.73,5.69-2.82,7.58-4.13,1.73-1.21,3.16-3.63,5.13-4.25.43,1.36-.45,3.19.99,4.11,3.26,2.1,9.29-4.44,11.06-6.18,8.93-8.74,11.82-23.52,8.51-35.25-1.12-3.98-2.35-9.23-6.09-11.59-3.55-2.24-6.06-.69-7.81,2.55l-.72,19.52Z"/>
        <path class="cls-18" d="M1114.98,540.04c1.31,3.04,2.52,5.31,2.35,8.57-.31,5.73-2.11,11.49-5.38,16.2-2.44,3.5-5.43,6.23-8.96,8.61-1,.67-3.35,2.92-4.6,1.94.24-.72.68-.71,1.41-1.27,2.7-2.05,5.55-5.84,7.3-8.55,4.61-7.19,7.56-16.19,7.9-25.49Z"/>
        <path class="cls-18" d="M827.89,630.43c-1.38-2.1-1.64-4.25-.77-6.46,2.47-2.87,5.21-5.46,8.23-7.76,8.23-6.3,17.97-10.78,28.39-11.14,7.25-.25,15.51.5,21.51,5.1,1.76,1.35,4.45,3.95,4.04,6.53-1.4.12-4.41-2.39-5.49-2.91-4.83-2.33-9.82-2.69-15.05-1.75-8.06,1.46-17.2,6.34-21.9,13.35,4.39-3.58,9.47-6.47,15.08-7.98,5.05-1.36,14.03-1.1,17.87,3.52-1.28.55-2.95-.42-4.22-.57-1.83-.22-3.7-.05-5.55-.06,2.41,0,4.43.53,6.34,2.15.37.31,1.98,1.7,2.06,2.22.1.58-.63,1.32-.71,2.05.18.77.39,1.53.63,2.28.29,1.53.32,3.07.08,4.62-.36,2.97-.76,5.79-3.58,7.49-6.27,3.78-16.82.67-23-1.12-10.1-2.94-18.41-7.59-23.98-9.56Z"/>
        <path class="cls-18" d="M817.76,625.37c-.65-1.59-2.35-4.14-1.85-6.01.46-1.71,3.03-4.17,4.12-5.46,2.35-2.77,5.24-5.45,8.4-7.3,1.19-.7,4.55-2.85,5.93-2.2,1.92.91-.03,1.7-1.33,2.46-6.1,3.55-10.63,9.47-13.83,15.61l-1.45,2.89Z"/>
        <path class="cls-16" d="M995.21,588.49c-.63,1.5-.91,2.9-1.36,4.45-.94,3.26-1.56,6.44-1.93,9.82-.3,2.73-.15,5.26.3,7.97.18,1.11.39,2.2.66,3.28.09.35.12.8.37,1.06.2-.74.47-1.44.67-2.19.1-.37.37-1.49.69-1.59.08.52.26.93.37,1.45.13.64.16,1.41.51,1.97.53-1.41,1.47-2.67,2.24-3.95.44.08.55.73.73,1.07,1.04,2.02,2.75,3.17,4.9,3.82,2.82.85,5.88.62,8.72-.08,1.39-.34,2.12-.86,3.27-1.57.28-.17.68-.25.91-.46.67-.62-.34-1.2-.44-2-.13-1.01-.02-2.6,1.06-3.06-.22-1.11-2.77-.25-3.26.24,1-.76,2.19-1.43,3.39-1.8.68-.21,1.44-.49,2.15-.55.51-.04,1.03.1,1.52-.04-.14-.52-1.02-.95-1.48-1.2-.53-.29-1.03-.18-1.51-.36-.23-.09-.42-.22-.49-.46,1.01-1.16,2.73-1.44,4.19-1.46.68,0,1.61.16,2.28-.04-.37-1.13-1.88-1.78-2.41-2.85.97-.58,2.06-.61,3.17-.64,2.48-.05,4.99-.05,7.47,0,.56.01,4.33-.31,4.02,1.11-.08.38-.33.37-.32.84,0,.62.46,1.12.85,1.56,3.08,3.55,8.74,3.65,13.02,3.03,2.8-.41,5.75-1.31,7.86-3.3,1.99-1.87,2.23-4.16,1.81-6.75-.45-2.79-1.64-5.13-3.24-7.41-2.2-3.15-4.62-6.23-7.58-8.7-5.25-4.39-12.51-7.44-19.48-6.95-2.42.17-4.5.89-6.68,1.89-.21.1-.86.3-.89.52.41.03.9-.37,1.26-.52.52-.21,1.01-.26,1.57-.27.47,0,1.07.19,1.39-.25-.31-.28-.41-.71-.68-1.03-.39-.45-1.05-.92-1.62-1.1-2.02-.64-4.84.8-6.56,1.78.84-1.11,2.11-1.95,2.95-3.11.53-.74.49-1.05-.58-.82-3.79.82-7.41,2.74-10.45,5.08-2.65,2.04-4.8,4.57-6.77,7.25-1.09,1.48-2.23,3.02-6.54,6.31Z"/>
        <path class="cls-38" d="M989.78,588.76c-.74,1.19-1.41,2-1.87,3.29-.86,2.41-1.31,4.9-1.53,7.44-.28,3.26-.11,6.45.75,9.61.32-.07.2-.27.21-.63.04-1.43.07-2.75.25-4.19.25-2.01.31-4.15.9-6.09.69-2.27,1.81-4.36,1.28-9.43Z"/>
        <path class="cls-16" d="M1065.44,519.07c-.84.22-1.78.32-2.47.81-.56.39-1.08.95-1.57,1.41-1.76,1.67-3.35,4.06-4.58,6.11-1.38,2.3-2.59,4.69-3.6,7.18-2.15,5.36-3.36,11.26-2.42,17.02.26,1.6.74,3,1.53,4.41.21.37.41.94.71,1.23.5-.51.36-2.29.46-2.92.11-.64.1-1.56.33-2.16.31.06.26,1.31.34,1.65.25,1.11.31,2.17,1.24,2.9.47.37.77.4,1.29-.02.38-.31.63-.52,1.08-.71.39,2.5,2.01,4.47,4.35,5.43,2.24.92,4.83,1.09,7.11.19,1.41-.56,2.01-1.38,1.74-2.82-.35-1.89-.81-3.81-.66-5.75.36-4.41,2.05-8.74,3.9-12.69,2.39-5.09,5.01-10.04,8.85-14.2,1.2-1.3,2.39-2.61,3.66-3.84.54-.52,1.28-.96,1.7-1.58-.41,0-.69-.08-1.02-.28-1.21-.72-2.06-1.88-3.45-2.48-2.66-1.14-5.31-1.35-8.15-.77-1.61.33-3.18.8-4.72,1.36-.73.27-1.66.86-2.44.78.14-.39.56-.65.83-.94.75-.79,1.51-1.65,2.15-2.51.52-.7.97-1.44,1.45-2.16.3-.45.72-.86.78-1.43.24-2.32-5.62.87-5.89,1-10.53,5.16-20.04,13.6-24.85,24.44-1.27,2.87-2.23,6.23-2.63,9.37-.24,1.88-.3,3.87.31,5.69.22.66.58,2,1.24,2.37.44-.99.52-2.14.91-3.16.72-1.87,1.71-3.7,2.96-5.27l19.52-27.66Z"/>
        <path class="cls-16" d="M1024.58,499.54c2.74.8,3.81,8.39,4.12,10.64.48,3.51.17,7.98-.81,11.42-.88,3.08-2.33,6.07-5.2,7.71.55-.57.4-1.33.58-2.07.54-2.34,1.28-4.56,1.65-6.94.53-3.43.49-7.04.45-10.51-.03-2.15-.32-4.24-1.51-6.07-1-1.53-2.44-2.73-3.62-4.11-3.61-4.23-5.2-9.7-10.72-12.14-1.36-.6-5.59-2.95-5.96-.63-.24,1.53,3.18,5.34.83,6.25-1.03.4-2.79-.91-3.67-1.17-1.08-.33-2.41-.85-3.49-.98-.02.92-.67,1.26-.87,2.05-.31,1.18.18,1.2-.65,2.42-.8,1.17-1.31,1.5-2.55,1.19-.89-.46-1.58-1.16-2.07-2.1-1.66-1.84-3.26-3.72-4.79-5.66-1.34-1.96-3.13-5.02-2.73-7.59.88-5.7,8.48-6.8,12.9-6.25,6.27.79,13.38,2.61,18.77,5.89,3.13,1.9,4.77,4.23,7.15,6.78.34-1.55-3.49-6.04-4.19-7.06-3.16-4.61-6.9-8.06-11.32-11.45-4.89-3.76-10.16-6.18-16.33-7.01-.25-.03-7.02.27-7.31-.76,3.81-.89,9.29-1.5,13.14-.79,1.99.36,3.78,1.76,5.71,1.98-.11-1.63-2.36-3.26-3.55-4.11-2.9-2.09-6.01-2.43-9.5-2.44-10.08-.03-19.2,4.86-25.06,13.09-.09.12-2.56,5.04-3.25,5.3-1.84.67-2.31-1.78-2.84-3.32-1.38-4.01-2.68-8.34-2.54-12.62-.1-1.96.33-3.78,1.28-5.46.52-.57.76-1.23.7-1.97-2.97.05-5.14,5.43-6.59,7.55-1.1,1.62-2.25,3.3-3.31,4.87-1.98,2.94-2.95,6.18-2.93,9.83.01,3.05.8,6.18,1.54,9.1.18.7.26,2.03.95,2.38.37-1.12.73-2.23,1.29-3.27.41-.76,1.06-1.34,1.08-2.23-2.95.02-5.92,5.71-7.24,7.95-.73,1.23-3.74,4.85-3.02,6.58.53,1.27,4.67,1.68,5.92,2.1,1.64.55,5.78,1.15,6.57,2.72-1.79,1.1-4.41,1.1-6.42,1.63-3.1.71-5.79,2.18-8.08,4.38-1.15,1.62-2.61,2.82-4.37,3.6-5.37,2.85-6.17-6.84-6.29-10.18-.45-3.57-.04-7.06,1.23-10.48,1.18-1.53,1.49-3.13.93-4.79-3.66-.3-5.24,1.98-7.02,4.92-2.82,4.66-3.74,9.32-4.03,16.9.36,2.7.58,5.27.78,7.96.49,6.36,2.88,12.55,5.29,18.38,1.51,3.65,2.84,7.36,5.2,10.56.91,1.23,1.89,2.96,3.11,3.65.2-2.23-1.24-5.15-1.76-7.3-.29-1.17-.3-2.16-.36-3.35,1.83,1.75,2.35,5.56,4.57,6.72.74-.92,1.05-2.59,1.25-3.75.21-1.27.1-5.15,1.25-5.88.76.37,1.18,1.35,1.69,1.98,1.47,1.81,3.49,3.77,5.43,5.03,3.88,2.52,8.35,4.48,12.89,5.28,4.94.87,9.88.4,14.86.49,4.67.09.6-2.04-.99-3.56-1.46-1.4-3.44-2.53-4.52-4.26-.63-1.01-.58-2.26-1.39-3.14,1.97,2.65,11.67,7.85,12.02,2.13.07-1.1.27-2.41-.7-3.14-.93-.71-1.94,0-2.95-.28-1.54-.42-3.32-3.1-4.21-4.26-.68-.89-2.29-2.58-2.18-3.67,1.38.53,3.91,1.59,5.53,1.47,1.73-.13,3.61-1.52,5.08-2.19.81,2.41-.49,4.35,1.51,6.44,1.43,1.49,3.94,1.87,5.91,2.11,1.52.19,3.52-.33,4.97.2-.11.61-1.46,1.57-2.03,2.01-1.11.85-2.41,1.21-3.61,1.89-1.04.59-1.89,1.41-2.93,1.98-2.3,1.24-5.49,2.23-5.26,5.62.2,3,4.23,5.53,6.67,6.42,6.43,2.33,12.84-.73,17.95-4.58,6.33-4.76,12.73-10,16.9-16.81,2.15-3.51,3.72-7.08,4.49-11.13.8-4.2.33-7.63-.8-11.76-.23-.85-.48-1.72-.74-2.61l4.13-3.71Z"/>
        <path class="cls-16" d="M906.71,545.83c3.46.64,6.99,7.66,5.36,10.87-.56,1.11-1.57,2.13-2.51,2.92-1.08.91-2.33,1.99-2.92.47-.62-1.6,0-4.42-.2-6.18-.19-1.68-.4-3.37-.78-5.02-.55-2.35-1.57-4.26-3.16-6.07-.97-1.11-2.03-2.14-3.07-3.19-3.3-3.35-6.83-3.11-11.54-3.21-4.91-.71-9.34-1.59-14.35-1.51-6.27.1-15.34.4-20.22,5.14-4.33,4.21-5.15,10.24-4.1,15.99.84,4.64,2.87,11.11,6,14.95.82-.53.7-1.05.84-2.05.35-2.43.37-4.28,1.55-6.55,1.28-2.47,3.45-4.37,6.18-4.92-2.43,3.22-2.72,7.16-.31,10.7.49-.24,1.36-.47,1.83-.81.67-.48.93-1.54,1.91-1.27.25.07,1.21,1.9,1.49,2.25,2.37,2.97,5.21,5.45,9.25,5.75,13.07.96,24.9-12.19,24.97-24.78,0-1.35-.12-2.57-.38-3.69l4.14.21Z"/>
        <path class="cls-13" d="M896.59,624.65c-.03-2.53-.42-4.93.38-7.22.82-2.35,2.55-5.07,3.86-7.24,5.85-9.75,16.69-18.27,26.91-23.09,5.75-2.71,11.73-4.69,18.11-5.09,1.21-.07,5.9-.8,6.92.54-.72.26-1.26-.05-1.99.12-.54.13-.67.56-1.16.75-1.13.44-4.16.99-3.8,2.79.96.25,1.87-.09,2.82.07,1.09.19,2.17.61,3.27.84,1.12.24,2.29.57,3.29,1.17.76.45,1.32,1.33,2.02,1.55-.06-1.54-2.39-1.81-3.24-2.83,1.28.08,2.56-.07,3.84.04,3.52.29,6.78,2.14,9.7,4.01,11.12,7.13,16.32,23.53,15.96,36.1-.19,6.37-2.75,11.98-7.26,16.51-4.56,4.59-10.6,5.73-16.88,5.68-5.21-.04-10.68-.77-15.81-1.74-1.12-.21-3.37-.92-4.39-1.68,1.45,1.27,3.4,1.67,5.17,2.3.75.27,4.83,1.56,5,2.27-1.9.37-2.9,1.09-4.93.75-1.63-.27-3.12-.76-4.66-1.31-.88-.32-1.59-1.18-2.6-.59,2.18,4.3,5.51,7.51,9.13,10.6-1.11.6-4.97-1.31-6.18-1.63-7.82-2.07-14.72-7.43-18.59-14.46-3.68-6.68-4.97-14.12-3.26-21.65.47-2.07,2.15-4.73,1.36-6.89-4.93,2.2-9.54,8.93-11.16,14-.6,1.88-.65,4.02-1.03,5.95-.24,1.27-.71,2.53-.75,3.83-.04,1.06.39,2.18-.87,2.66-1.14-1.08-1.26-4.91-1.3-6.12-.19-5.53,1.01-10.68-7.9-10.98Z"/>
        <path class="cls-16" d="M915.39,608.02c.54-.35,6.09-4.59,7.86-4.24,1.26,2.44-7.19,7.37-4.29,8.63,1.01.44,2.55-.37,3.66.06,2.17.83,2.45,3.44,2.72,5.33.8,5.55.48,12.19,3.95,16.93,2.89,3.96,8.33,8,13.54,7.25,4.67-.67,6.63-7.53,7.28-11.54.31-1.9.7-3.84.76-5.77.02-.76-.17-1.39.13-2.12.48.1.83,1.07,1.2,1.54.8,1.01,2.4,1.92,3.51,2.6,3.52,2.17,7.41,2.17,10.24-1.29,1.32-1.61,1.86-3.04,1.39-5.11-.21-.92-1.07-2-1.19-2.89-.36-2.81,2.05-.63,3.11.37,1.73,1.63,4.37,3.66,6.5,1.49,2.28-2.33,1.05-7.2.3-9.79-1.76-6.11-5.52-11.68-10.25-15.86-7.78-6.88-18.14-9.83-28.11-6.59-3.91,1.27-6.75,3.38-10.01,5.77-.81.6-1.95,1.14-2.17,2.22l-10.12,13.02Z"/>
        <path class="cls-16" d="M954.44,632.6c-.63,2.33-1.17,4.53-2,6.76-.26.69-1.03,2.09-1.01,2.86.12,3.62,8.14,1.36,9.82.86,3.56-1.08,7.98-2.66,9-6.71.51-2.04.32-3.88-1.35-5.21l-14.46,1.45Z"/>
        <path class="cls-16" d="M911.05,595c1.58-5.3,2.19-6.44,6.48-9.98,4.57-3.78,10.12-6.9,15.97-8.16,1.67-.36,11.36-2.55,12.89.76,1.27,2.76-4.94,2.88-6.02,3.06-4.04.66-8.21,1.09-12.19,2.01-5.26,1.22-12.89,3.65-17.13,12.31Z"/>
        <path class="cls-16" d="M948.24,568.63c1.95,3.02,3.35,6.06,5,9.22,3.25,6.25,8.03,10.77,14.47,13.54,3.88,1.67,7.72,2.8,11.92,3.25,1.15.12,2.12.06,3.1.76-.85-.16-1.21.49-1.89.59-2.04.3-4.19-1.35-5.78-2.45-2.01-1.39-5.61-3.92-5.76-6.75,1.12-.55,2.95,1.28,4.21,1.43,1.07.12,2.59-.64,3.16-1.48.48-.69.24-1.76.86-2.21.78-.55,2.3.78,3.13.85,1.22-.35,2.41-.78,3.57-1.29,1.57-.44,3.08-1.04,4.52-1.8,5.05-2.43,10.11-7.39,9.43-13.42-1.67-.73-3.61-.32-5.37-.23-3.97.21-7.83,1.12-11.79,1.53-4.71.48-9.61.81-14.31.05-5.51-.89-10.83-4.63-18.48-1.59Z"/>
        <path class="cls-19" d="M838.74,525.58c2.37,1.63,4.93,2.74,7.68,3.33.85-3.72,7.47-2.93,8.47-6.61.73-2.7-2.25-3.04-4.23-3.77-6.61-2.46,4.36-4.29,4.26-6.84-1.51-.27-2.78-1.07-4.26-1.35-1.59-.31-3.72.04-5.34.05-4.03.02-13.35-.64-6.06-5.38,4.88-3.17,10.82-4.73,16.38-6.17,3.35-.87,6.69-1.79,10.08-2.49,1.68-.34,3.95-.39,5.52-1.15,2.7-1.3,4.03-2.9,1.97-5.38-1.7-2.06-3.98-3.38-6.24-4.64-2.52-1.41-5.96-1.87-3.14-4.79,3.03-3.15,8.51-5.61,12.85-5.82,2.99-.14,6.81.78,9.65-.18-.52-1.89-2.57-3.7-4.25-4.66-6.05-3.47-14.84-4.39-21.64-3.63-16.46,1.84-36.32,7.57-46.51,21.72-4.56,6.34-7.98,13.5-11.67,20.34-1.35,2.5-2.7,5.1-.45,7.47,3.51,3.7,9.17-2.68,10.92,2.37.55,1.59-.02,2.64,2.07,3.3,3.7,1.16,6.53-3.07,8.48-5.43,3.34-4.03,5.16-7.78,4.66-13.13-.19-1.98-.7-4.28-1.15-6.21-.34-1.46-1.3-3.21-1.08-4.69.81-5.44,8.91-10.66,13.19-13,4.84-2.64,10.34-3.27,15.6-4.12,2.08-.34,3.66-.35,4.85.97,1.12,1.24.52,3.85,1.96,4.66-1.31,3.07-1.26,4.94.99,7.57,1.27,1.48,1.59,1.6-.13,2.97-2.62,2.08-7.35,3.7-10.42,4.84-5.96,2.22-11.23,4.61-16.47,8.26-.71.49-6.4,3.88-6.46,5.34-.11,2.52,5.03,3.87,5.88,5.29-.74,1.3-1.87,2.21-3.38,2.71-3.86,2.8-7.46,5.91-10.81,9.3-6.75,7.01-12.02,15.47-13.77,25.11-1.14,6.29-1.19,13.59,1.61,19.53.6,1.27,1.68,3.64,2.92,4.22,2.42-6.13,9.96-14.67,16.22-8.62,4.45-6.77,6.63-14.86,10.13-22.11,2.36-4.88,4.89-9.63,8.62-13.6,3.53-3.76,6.93-4.55-7.54-5.56Z"/>
        <path class="cls-16" d="M780.16,523.41c-3.18,2.48-6.43,4.23-7.92,8.02-1.78,4.54-2.81,9.4-3.47,14.21-.75,5.54-1.24,11.2.54,16.57.73-1.39.85-2.7,1.25-4.17,1.04-3.85,3.31-7.48,5.31-10.9,3.13-5.34,4.35-8.76,4.29-15.05v-8.68Z"/>
        <path class="cls-19" d="M1043.75,525.58c.79-5.51,1.67-8.94-.54-14-.79-1.81-2.21-4.02-1.68-6.13,1.32-5.31,14.34-1.56,17.97-1.53,1.41.01,10.35.78,10.42-1.1.03-.81-1.62-2.51-2.03-3.25-.95-1.73-1.27-3.48-2.03-5.26,1.44-.29,2.65-1.05,4.1-1.33,3.24-.63,6.03.33,9.35-.95,5.4-2.07,9.3-5.4,15.3-5.57,9.65-.27,21.83,4.98,28.54,11.93,3.84,3.98,6.57,9.3,9.38,14.03,1.08,1.81,3.57,5.17,3.34,7.4-8.06-3.1-17.26-7.6-22.28-14.95,4.02-.29,5.84,9.87,1.99,9.83-2.38-4.77-2.71-10.56-6.28-14.72-6.67-7.76-22.62-11.29-31.86-7.18-1.29.57-6.84,2.07-6.4,4.3.2,1.05,3.46,2.06,4.14,2.41,1.27.66,4.18,1.48,4.25,3.07-2.94.44-5.37,1.66-8.27,2.38-2.16.54-4.36,1.5-6.53,1.95-1.71.35-3.42-.04-5.06.31-5.18,1.1-9.53,3.98-13.11,8.11-6.82,7.86-9.13,17.62-13.87,26.51-2.08-.67-.5-5.82-.24-7.21,1.84-9.98,7.11-19.76,11.4-9.06Z"/>
        <path class="cls-13" d="M1005.78,653.57c6.06-7.25,11.41-13.24,21.34-14.85,6.74-1.1,13.66-.71,19.5,2.94-1.03,1.67-3.22.9-4.81.96-4.29.15-9.02,2.1-12.84,3.99-3.94,1.95-7.55,4.84-8.93,8.97,1.41-.28,2.89-1.73,4.42-2.3,1.1-.41,2.91-1.14,4.17-.87.55.12.87.84,1.24.92,3.72.85,8.69-.99,12.19.73,2.59,1.28,1.65,2.3.2,4.38-3.68,5.31-9.23,9.73-13.95,14.11-4.58,4.25-8.29,7.01-14.85,5.48-3.63-.85-6.88-3.21-8.02-6.95-2.2-7.2,4.57-15.32,7.91-20.77l-7.59,3.25Z"/>
        <path class="cls-13" d="M1048.09,662.25c-3.02,3.78-5.76,6.69-9.25,9.89-1.47,1.35-5.36,4-4.8,6.31,3.88,2.34,13.78-12.89,15.29-15.24,1.78-2.78,2.82-7.34,4.81-9.77-.36.68-.94,1.1-1.7,1.22l-4.34,7.59Z"/>
        <path class="cls-13" d="M1052.43,679.61c-4.94,3.72-10,6.51-15.18,9.81-2.06,1.31-6.25,3.39-3.33,5.7,1.26,1,4.54.5,5.36,2.09,1.03,2.02-2.38,2.38-.37,4.58,1.93,2.11,7.42-.41,9.25-1.06,9.26-3.29,17.15-11.39,21.32-20.2,1.72-3.65,3.66-7.96,1.71-11.87-2.65-5.32-8.26,1.18-11.16,3.35l-7.59,7.59Z"/>
        <path class="cls-26" d="M1220.56,393.24c5.09.94,7.48,8.41,7.74,12.79.16,2.73.45,7.63-2.32,9.43-3.75,2.44-6.98-12.62-8.71-15.02-1.42-1.98-3.44-3.37-5.39-4.78-3.04-2.2-5.13-4.05-9.14-2.59-9.52,3.47-19.23,7.1-28.04,12.16-3.74,2.15-7.36,4.46-10.51,7.41-.91.85-1.71,2.61-3.23,2.14.44-3.02,16.85-8.42,17.16-3.78.07.98-2.23,2.27-2.87,2.85-1.26,1.14-2.63,2.29-2.63,4.17-1.65.41-3.44.13-5.14.14-3.51.02-6.49.54-9.86,1.63-6.94,2.26-18.71,7.62-18.44,21.17,3.95-4.07,4.36-5.46,9.16-5.65,4.14-.16,9.59,1.12,13.6,2.53,4.38,1.54,9.22,4.55,11.79,8.58,1,1.58.09,2.58,2.78,2.04,1.67-.33,2.12-1.7,4.35-.92,1.43.5,2.7,2.17,3.84,3.16,3.52,3.03,5.76,1.97,8.94-1.53,6.05-6.66,8.82-17.86,9.39-26.67.14-2.24-.92-10.11,3.16-9.67,1.98,3.98,5.68,6.52,7.28,10.86.68,1.84.75,5.95,3.53,5.34,1.38-.3,2.14-4.77,2.43-5.92.85-3.39.92-6.71.16-10.12-.85-3.78-1.89-8.89-4.03-12.81l4.99-6.95Z"/>
        <path class="cls-26" d="M1151.13,448.56c-5.37,2.88-8.13,5.98-12.73,9.81-.72.6-7.36,4.54-6.72,6.31,2.34.99,6.23-2.1,8.02-3.13,5.41-3.14,7.5-5.92,9.26-11.91l2.17-1.08Z"/>
        <path class="cls-32" d="M666.27,366.12c-2.88,6.82-4.33,7.7-1.93,14.13,2.58,6.9,5.71,13.76,10.61,19.35,1.73,1.98,8.83,9.38,12.38,7.75,1.85-.85,2.49-3.69,2.74-5.47.17-1.2-.44-3.31,0-4.37.61-1.48,1.29-.97,2.78-1.02,2.42-.08,5.51.58,7.76-.18-.7-2.69-4.47-6.54-6.18-8.57-1.2-1.42-1.44-1.8-2.34-3.39-1.53-2.71-3.3-4.14-5.61-6.25-3.88-3.54-6.61-8.29-10.56-11.7-1.05-.91-4.12-3.47-5.4-3.43-5.19.15-1.86,8.31-4.24,3.16Z"/>
        <path class="cls-26" d="M814.87,704.56c-9.57,2.93-18.52,8.15-25.69,15.31-5.55,5.54-14.9,18.06-12.29,27.03,1.88,6.48,9.13.82,12.56-1.24,2.38-1.43,4.55-3.69,7.09-4.75,1.02-.43,2.58-.37,3.01-1.2-2.16,1.99-6.22,6.21-6.25,9.16,3.36,1.31,9.03-2.91,11.74-4.13,7.51-3.39,14.06-6.63,17.36-14.83,1.65-4.1,2.59-9.4-1.21-12.37-1.5-1.17-3.1-2.02-5.01-2.21-1.21-.12-2.19.32-3.39-.16.21-.95,4.37-2.98,5.34-3.58,4.45-2.76,7.96-5.61,10.62-10.08.61-1.02,3.16-3.17,2.25-4.37-.85-1.12-9.27,2.96-16.13,7.43Z"/>
        <path class="cls-13" d="M808.36,720.83c-1.86,1.17-3.39,2.64-4.61,4.41.16,1.12.02,2.22-.44,3.29-.4,1.74-.39,3.71-.91,5.41-.33,1.07-1.19,1.54.12,2.12.76.34,1.83-.22,2.54-.37,5.54-1.19,11.45-3.97,14.12-9.38,1-2.02,1.26-3.92.05-6-1.22-2.09-4.81-4.95-7.26-5.27l-3.62,5.79Z"/>
        <path class="cls-13" d="M1181.51,409.15c4.64,1.85,12.09,6.94,10,12.93-1.52.05-2.95-2.07-4.16-2.87-1.61-1.06-3.58-2.08-5.55-2.17-1.55-.07-2.99.51-4.43.98-4.74,1.56-9.65,2.55-14.43,3.98-2.3.69-5.75,1.09-11.07,5.95,6.81.25,11.59,1.5,17.39,5.35,2.81,1.86,5.5,3.73,8,5.98-.05-1.15-.75-2.01-1.17-3.05-.5-1.24-.48-3.13-1.55-4.01,3.94-.08,7.55,3.47,10.5,5.75,4.05,3.14,5.52-3.57,5.83-6.76.37-3.8-.12-7.71-3.56-9.87-2.35-1.47-4.78-2.52-7.48-2.76l1.69-9.44Z"/>
        <path class="cls-13" d="M1202.48,400.47c2.17,2.26,3.7,3.75,5.03,6.48,1.42,2.91,2.49,5.94,3.68,8.95,1.37,3.47,3.06,6.89,3.75,10.57,1.01-.49,2.18-3.22,2.45-4.34,1.09-4.42.51-9.89-.47-14.22-1.71-7.61-7.52-14.5-14.44-7.44Z"/>
        <path class="cls-17" d="M757.74,409.15c-.72,1.47-2.23,3.47-2.38,5.17-.09.97.63,2.49.85,3.43,1.73,7.42,4.5,13.93,8.61,20.43,3.84,6.07,9.66,10.48,15.35,14.77,2.29,1.73,4.49,2.75,7.18,3.64-1.38-1.65-2.63-4.04-3.28-6.14,1.77,1.01,2.33,3.23,4.67,3.47.07-.8.29-1.43.47-2.13.28-1.13.16-2.42.51-3.56,2.11.71,4.15,3.66,5.72,5.2,2.43,2.39,9.35,8.47,12.65,5.31,3.95-3.78,2.49-12.87,2.46-17.72-.01-2.59.09-5.22-.02-7.81-.08,1.52.94,3.3,1.45,4.71.73,2.04.85,4.15,1.16,6.29.52,3.53,1.3,7.03,2.07,10.52,1.06,4.79,2.94,7.17,6.39,10.33.91.83,1.64,1.55,2.71,2.18.58.34,1.35.3,1.33,1.12-.75-.05-1.4-1-2.01-1.48-1.53-1.21-3.37-2.21-5.16-2.96-4.44-1.86-.4,3.21.77,4.41,1.16,1.18,1.62,1.01.92,2.46-.95,1.97-2.09,3.97-3.1,5.93-1.08,2.1-2.46,3.88-3.64,5.86-.57.96-.84,2.1-1.97,2.46-.26-1.86-1.74-3.03-2.93-4.37-2.94-3.32-6.46-5.98-10.12-8.48-7.29-4.96-15.23-9.12-22.71-13.8-9.38-5.86-18.82-12.84-20.62-24.54-.83-5.36.01-10.66.65-15.9.2-.04.4-.07,2.05-8.79Z"/>
        <path class="cls-17" d="M881.4,482.91c1.53,1.34,2.99,2.89,4.6,4.11,1.51,1.14,3.21,1.91,4.69,3.12,1.09.88,4.6,3.41,4.38,4.95-4.45.83-8.81,2.14-13.26,3.28-2.91.74-5.67,1.52-8.34,2.92-1.15.6-2.23,1.43-3.43,1.91,1.27.05,2.37-.4,3.61-.61,3.31-.57,7.88-.6,11.09.23,2.32.6,6.2,2.1,7.94,3.95-.58.65-1.67.57-2.11,1.25-.92,1.41.76.71.86,1.82.09,1.01-2.46,1.45-3.19,1.76-2.28.97-4.36,2.73-6.8,3.28.07,1.09,1.78,2.08,2.6,2.7,5.16,3.85,10.98,5.95,15.69,10.6,6.86,6.77,13.52,15.25,17.9,23.89-1.88-1.32-2.97-4.84-4.19-6.78-4.53-7.21-9.49-13.58-12.16-21.82-2.38-7.37-1.96-14.57-1.1-22.17.2-1.75.69-3.16,1.3-4.74.36-.92.9-1.71.78-2.76-1.48.45-2.26,2.07-3.21,3.21-.7.84-2.74,4.05-3.78,3.92-.5-1.29-.03-2.51.58-3.7,1.56-3.04,3.66-6.28,6.01-8.73,1.97-2.04,4.62-3,6.72-4.86-1.26-2.08-5.73-.14-7.24.33-2.58.81-5.12,1.42-7.75,2.06-.96.23-2.8,1.1-3.52-.04-.7-1.11,1.89-5.65,2.07-5.97,2.62-4.79,6.59-8.06,11.16-10.84,3.53-2.15,7.44-4.08,11.24-5.75.83-.37,3.49-.9,3.67-2.07-3.69-1.27-8.53,1.39-11.76,2.67-5.62,2.22-10.67,4.81-15.27,8.77-4.33,3.72-7.1,8.04-9.78,10.11Z"/>
        <path class="cls-17" d="M1044.11,518.35c-2.23,5.35-4.19,11.14-5.88,16.69-1.19,3.93-1.21,7.33-1.39,11.36.48-.92.63-1.87.97-2.84,2.15-6.26,6.85-11.73,11.2-16.48,3.57-3.9,7.08-7.14,11.36-10.21.75-.54,3.05-1.8,3.2-2.7-5.59-1.32-10.71,3.42-14.4,7.08l-5.06-2.89Z"/>
        <path class="cls-17" d="M964.56,565.71c1.06,1.25,2.22,2.39,3.48,3.41,1.35.45,2.73.77,4.15.95,4.78.79,9.65.74,14.46.22,3.37-.36,6.97-.71,10.27-1.49.77-.18,1.35-.55,2.16-.35-.64-.95-2.08-.58-3.04-.57-1.59.02-3.25-.72-4.76-.56,2.53.05,4.85-.26,7.32-1.06,3.6-1.16,6.68-3.52,9.56-5.87,3.78-3.08,7.63-6.18,11.26-9.43,2.26-2.02,5.14-5.11,6.27-8.04.16-.42.5-1.16.06-1.56-.62-.55-.81.21-1.14.48-2.02,1.6-3.83,3.74-5.84,5.43-3.15,2.65-6.63,5.78-10.51,7.3-3.35,1.31-7.03,2-10.57,2.5-8.88,1.27-18.04.27-26.98.5-4.5.11-8.91.57-13.17,2.12-2.41.88-5.09,1.72-7.11,3.34-.21.17-3.14,2.35-3.19,2.56.63.06,1.71-.44,2.26-.57,1.73-.4,3.48-.86,5.26-.96,2.21-.11,4.37.76,9.8,1.62Z"/>
        <path class="cls-17" d="M1024.22,553.78c-6.24,6.32-13.17,12.48-21.14,16.43.18.61,1.73.53,2.33.37.59-.16,1.35-.82,1.97-1.1,3.35-1.49,7.13-3.25,10.63-4.29,4.39-1.31,9.85-2.29,13.77.77,1.03.8,2.45,3.23,3.74,3.5.25-.9-.12-1.29-.42-2.32-.64-2.27-1-4.6-1.12-6.96-.21-4.25,1.08-8.16,1.1-12.34,0-.81.3-1.89-.5-2.26-.86-.4-2.62.97-2.93,1.17-3.3,2.18-6.23,4.81-7.43,7.02Z"/>
        <path class="cls-17" d="M897.85,585.78c-4.2,3.31-6.79,7.38-8.92,12.36-.87,2.03-1.82,4.21-2.27,6.38-.11.54,0,2.34-.66,2.44-.08-.88,1.14-2.62,1.45-3.18,1.1-1.95,2.41-3.63,3.9-5.31.86-.96,3.74-5.42,5.36-4.46-.05.52-.67.89-.97,1.32-.39.56-.54,1.26-.72,1.92-.37,1.3-.71,2.53-.96,3.86-.21,1.13-.7,2.31-.54,3.47-.29-1.38.49-3.17.9-4.35,1.71-4.87,4.75-8.68,8.31-12.33,2.68-2.76,5.38-5.54,8.7-7.55.61-.37,1.96-.82,2.11-1.53-1.07-.51-3.51.99-4.43,1.32-5.65,2.03-11.04,6.36-11.25,5.63Z"/>
        <path class="cls-17" d="M892.97,630.8c-1.79,1.45-3.74,2.87-5.39,4.48-4.65,4.5-7.82,10.67-10.12,16.62-2.17,5.62-2.45,10.93-2.4,16.86.01,1.78-.47,4.22.58,5.82-.12-1.51.93-3.55,1.58-4.91.29-.62,2.18-3.96,2.97-3.63.33.14.71,2.05.81,2.5.15.69-.35,2.7.46,2.89.14-.9.6-1.65.94-2.49.35-.86.43-2.76,1.23-3.26.59.24.49.55.75,1.04.42,1.78.89,3.54,1.42,5.28.51,2.02,1.29,3.91,2.36,5.67,1.51,2.8,3.59,4.99,5.64,7.4.9,1.06,2.03,3.08,3.53,3.27.15-.66-.37-1.24-.67-1.78-1.17-2.09-2.37-4.16-3.2-6.42-1.43-3.93-1.95-8.36-2.3-12.5-.5-5.84-.25-11.47,1.22-17.16,1.77-6.86,4.16-14.02,8.5-19.73,1.09-1.44,2.97-2.66,3.84-4.22-.71-.46-2.65,1.47-11.75,4.26Z"/>
        <path class="cls-17" d="M1019.34,678.52c-4.45.06-9.04-.73-13.26-2.2-1.91-.66-3.43-1.66-5.19-2.64-.61-.34-1.41-.91-2.13-.59-.36,4.25,4,8.05,7.3,9.71,4.34,2.18,10.43,3.23,15.34,2.76-.64,0-1.17.27-1.78.41-2.46.57-5.04.71-7.56.72-2.09,0-4.14.03-6.21-.29-.9-.14-1.9-.55-2.8-.2.36,1.52,3.57,3.21,4.83,3.73,7.88,3.22,17.79-.37,25.02-3.5,9.71-4.21,17.53-11.13,23.63-19.78,1.77-2.51,4.25-5.86,4.06-9.14-1.38,3.65-4.57,6.99-7.2,9.7-4.28,4.39-8.88,7.57-14.76,9.42-3.73,1.18-7.47,1.9-11.36,2.21-5.18.41-9-.68-7.93-.31Z"/>
        <path class="cls-17" d="M1046.46,623.2c.3,2.1,2.12,11.35-1.38,11.92-1.15.19-3.29-1.65-3.98-2.43-.5-.56-.86-2.35-1.58-2.4-.19,1.46-.84,2.97-1.51,4.33-1.45,2.94-3.44.87-4.13-1.5-1.66-5.69,2.69-12.61,6.89-16.03,1.42-1.16,3.66-2.72,5.56-3.09.71-.14,1.4.01,2.12-.07-2.93,3.13-2.91,7.89-3.06,11.97l1.08-2.71Z"/>
        <path class="cls-17" d="M779.62,602.59c-2.47-4.51-4.55-9.2-6.24-14.07l-3-10.26c-.43-2.57-1.76-8.58.78-10.48.4-.86,1.07-1.09,2.02-.68.53.47,1.05.94,1.58,1.41,2.4,2.38,4.47,5.31,6.5,8.02,2.7,3.59,4.81,7.32,6.46,11.48,2,5.03,3.37,10.37,5.32,15.44,1.23,3.2,2.41,6.44,3.86,9.54,1.12,2.4,2.69,4.52,3.78,6.91-.75-.35-1.74-.66-2.49-1.17-.75-.53-1.36-1.28-2.27-1.48.06.63.38,1.12.96,1.48.94,1.03,1.74,2.16,2.41,3.4,1,1.5,2.61,2.76,3.5,4.28-1.44-.7-3.15-2.18-4.36-3.13-5.4-4.21-10.31-8.72-14.47-14.2-1.12-1.48-2.2-3-3.21-4.55-2.19-3.35-4.13-6.86-5.82-10.5-1.65-3.56-2.76-7.34-4.42-10.89-1.05-2.25-2.57-4.24-3.56-6.51-.57-1.29-.93-2.66-1.18-4.05-1.2-6.69-1.34-13.74-1.34-20.51,0-1.09-.08-2.23.15-3.3.16-.75.53-1.27-5,6.09-.7,3.94-1.35,6.67-.94,10.74.66,6.58,2.07,12.85,4.52,19.03,4.06,10.23,10.31,19.67,16.97,28.37-.87-.21-1.9-2.11-2.38-2.77-1.66-2.3-2.96-4.77-4.11-7.36-3.54-7.94-5.69-15.88-7.06-24.22l13.08,23.94Z"/>
        <path class="cls-22" d="M869.65,419.27c-.46,2.96-.59,4.77-2.58,6.96-2.57,2.82-5.24,4.56-8.48,6.49-1.84,1.1-4.84,2.58-4.29,5.09.6,2.78,2.23,3.48,4.21,5.06,1.05.83,1.21,1.44,1.45,2.71.18.94.34,2.06,1.26,2.45,1.71.73,4.46-1.33,5.72-2.2,1.05-.73,2.35-2.05,3.7-2.08.09,1.58,1.16,1.77,2.31,1.12,5.36-3.01,8.8-10.49,10.01-16.11,1.29-5.96,1.11-14.64-3.52-19.33-.91-.92-2.47-2.41-3.85-2.64-1.77-.3-3.33,1.52-5.94,12.48Z"/>
        <path class="cls-22" d="M850.12,409.51c2.74,1.92,4.02,2.98,5.43,5.98,1.34,2.86,2.16,6.06,2.2,9.23,0,.39-.33,2.25.05,2.62.7.66,1.93-.64,2.41-1.01,2.6-1.99,4.13-4.35,5.3-7.44,1.73-4.57,2.85-10.09,1.05-14.81-1.4-3.67-4.28-6.66-8.47-6.41-5.15.31-8.89,4.86-11.77,8.59l3.8,3.25Z"/>
        <path class="cls-13" d="M773.65,389.99c-1.38,3.43-2.43,6.62-2.7,10.35-.59,8.03,2.09,16.18,5.1,23.51.56,1.35,2.35,6.33,4.44,6.33,1,0,1.22-1.2,1.55-2.02.24-.59,1.08-4.25,1.93-4.09.63.12.7,1.15.91,1.69.35.92.87,2.18,1.67,2.8.34.26.11.44.62.48.46.04,1.42-1.78,1.69-2.12.77-.97.93-1.68,2.14-1.67,1.84,0,3.78,1.59,5.65,1.88,3.89.58,6.75-1.71,8.74-4.88,4.01-6.38,5.29-14.01,4.14-21.43-.56-3.57-1.77-7.09-3.21-10.39-1.31-3-2.86-6.31-4.97-8.85-2.82-3.4-6.49-5.48-10.96-4.55-5.74,1.19-10.14,5.94-12.66,10.99-1.15,2.31-1.46,4.4-2.01,6.82-.15.01-.29.03-2.07-4.84Z"/>
        <path class="cls-13" d="M814.33,405.72c-.63,5.56-2.03,10.82-3.82,16.15-.2.6-3.42,7.09-1.43,7.19.67.03,1.78-1.68,2.18-2.14,1.94-2.26,3.45-4.92,4.63-7.64,1.25-2.86,2.12-6.1,2.53-9.2.25-1.87.09-2.68-4.09-4.35Z"/>
        <path class="cls-26" d="M874.89,383.84c1.83,1.24,3.3,2.09,4.64,3.88,1.78,2.38,3.11,5.29,4.48,7.9,3.96,7.54,7.66,15.36,7.15,24.09-.2,3.39-.98,6.71-1.49,10.06-.12.77-.97,4,0,4.77,1.17.92,3.2-1.63,4.22-2.25,1.38-.83,2.32.87,3.81.71,2.55-.26,3.52-2.51,4.24-4.64,1.02-3,1.63-5.95,1.52-9.15-.15-4.42-1.02-8.97-1.89-13.3-1.36-6.73-4.24-13.39-8.75-18.63-4.49-5.22-12.92-11.85-17.94-3.46Z"/>
        <path class="cls-17" d="M839.46,388.18c-6.43,4.4-11.89,9.94-15,17.2-1.55,3.61-2.61,7.29-3.07,11.2-.16,1.34-.96,3.83-.08,5,.67-.19.88-1.01,1.15-1.58.92-1.91,1.53-3.97,2.44-5.89,3.5-7.36,8.93-13.63,15.07-18.89,5.1-4.38,10.64-7.86,16.58-10.96.96-.5,1.89-1.03,2.84-1.54.36-.2.59-.44,1.04-.32l-20.97,5.79Z"/>
        <path class="cls-26" d="M759.19,392.16c-1.47,2.28-1.8,2.94-2.26,5.69-1.01,5.99-.98,11.98-.04,17.97,1.31,8.38,3.89,17.24,8.45,24.48,1.22,2.02,2.66,3.85,4.34,5.5.4.6.93.96,1.59,1.07.25-.63.11-1.22-.42-1.79-1.12-2.15-2.17-4.33-3.12-6.56-2.22-5.4-3.9-10.98-4.86-16.76-1.11-6.68-1.31-13.71-.86-20.47.33-5,1.09-9.79,2.61-14.56l-5.42,5.42Z"/>
        <path class="cls-28" d="M1014.82,574.75c-1.26-.02-2.19-.2-3.29.31-1.9.87-3.59,2.24-5.14,3.62-2.46,2.19-4.17,4.84-5.68,7.74-1.61,3.09-3.45,7.86-3.49,11.46-.02,1.99.23,3.86.96,5.72.32.81.52,1.94,1.1,2.62,1.16,1.39,3.69.38,5.04.03.86-.22,1.8-.55,2.7-.36.24.05.3.31.56.36.44.08.65-.14,1.03-.26,1.92-.61,3.71-1.71,5.64-2.34.95-.31,2.09-.59,3.08-.77-.14-.73-1.66-1.47-2.15-1.73-1.66-.86-3.32-1-5.05-1.53.25-.77,3.71-.27,4.29-.27,1.09,0,3.34.4,4.37-.07-.06-.44-2.04-1.6-2.52-1.83,0-.71,4.52-1.37,4.66-1.4,4.2-.67,8.5-.32,12.62.71,2.64.67,5.75,1.55,7.89,3.36.47.4.87,1.03,1.56.98-.11-.99-3.61-1.77-4.33-1.41-.51.25-.39,1.07-.36,1.64.1,2.32,1.86,3.85,4.08,4.25,3.9.7,7.83-.75,10.47-3.71,4.15-4.64-.18-12.87-3.31-16.67-4.76-5.78-11.06-9.96-18.51-11.09-3.87-.59-8.91-.15-12.27,2.08-1.85,1.23-4.16,2.83-3.93-1.42Z"/>
        <path class="cls-28" d="M971.07,576.2c-1.96-.63-3.22-1.1-5.23-.34-.96.36-2.33,1.12-2.91,1.95-.46.66-.58.64.04,1.36,1.41,1.65,4.14,1.74,6.1,1.75.81,0,2.36.18,2.35-1.11l-.36-3.62Z"/>
        <path class="cls-28" d="M1069.78,523.05c-1.72-.32-2.29-.53-3.58.55-2.42,2.05-4.75,4.69-6.42,7.41-3.38,5.5-4.78,12.61-1.02,18.27.5.75,1.33,2.17,2.34,2.14,1.2-.03,1.97-1.68,2.48-2.6.53-.96,1.44-3.96,2.95-3.69.96.17,1.41,1.46,2.52.72,1.12-.75,1.93-2.31,2.66-3.38,1.69-2.47,3.2-5.11,4.63-7.74,1.32-2.43,2.59-4.9,3.67-7.45.69-1.62,1.45-3.52,1.37-5.32-.16-3.94-6.45-2.9-11.6,1.07Z"/>
        <path class="cls-28" d="M924.43,511.48c.7,5.84.26,18.56,7.27,21.46,1.8-2.65,5.91-11.49,9.3-9.84.83.4,2.19,1.82,2.93,2.43,1.05.87,2.84,4.11,3.92,4.41,2.24.61,3.76-2.94,4.83-4.4,2.67-3.62,4.89-6.43,9.09-8.16,5.53-2.28,11.67-3.76,17.65-3.72-2.9-.39-9.76,4.48-9.32,7.45,1.29.57,2.09-.46,3.27-.81,2.06-.61,5.05-1.19,7.21-1.3,2.93-.14,5.65.87,8.1,1.98,2.8,1.26,2.84,1.79,3.53,5.09.47,2.25.35,8.36,2.61,9.37,3.77,1.69,10.87-5.3,13.19-7.64,4.27-4.31,8.57-10.15,8.73-16.55.16-6.67-9.05-11.42-14.01-13.76-.37,1.22-.08,2.38-.31,3.59-.19.97-1.28,1.11-.94,2.37-1-.93-3.27-1.9-4.61-2.58-.94-.47-3.97-1.63-5.05-1.43-.9.16-1.16,1.03-1.87,1.15-3.32.57-8.52-3.72-10.8-5.87-7.02-6.61-2.87-15.29,3.06-21.17,1.43-1.42,7.41-4.17,7.14-6.27-.28-2.21-4.62-3.02-6.19-3.33-12.5-2.46-25.49,6.88-30.68,17.89.53-.52.8-.92,1.11-1.51-3.03,2.29-10.28,15.32-4.73,18.02,2.72,1.32,8.72-.48,11.57-.97,1.74-.3,4.2-1.83,5.91-.89-.31,1.12-1.23,2.05-1.76,3.01-.9,1.61-1.51,3.32-3.26,4.48-2.03,1.34-4.39,1.15-6.75,2.01-2.9,1.06-6.03,2.28-8.6,4.01-3.09,2.08-5.15,5.1-7.26,8.11-1.43,2.03-2.73,4.39-5.3,5.17-5.74,1.75-13.28-4.87-9-11.79Z"/>
        <path class="cls-28" d="M1163.43,427.95c1.77-.51,4.1-1.67,6.02-1.41.75.1,1.7.68,2.48.87,1.29.31,2.51,1.08,3.79,1.3.47.08,1.02-.18,1.49-.08.41.09.55.48.85.59,1.19.4,2.28.79,3.43,1.35,1.63.8,2.76,1.58,4.46.53,2.42-1.5,3.25-4.46,2.51-7.08-2.62-9.35-17.8-4.22-22.85-.41l-2.17,4.34Z"/>
        <path class="cls-26" d="M721.59,285.85c2.92,2.88,5.18,5.68,7.76,8.76,1.71,2.04,4.52,6.17,7.35,6.5,1.11-3.54-1.58-8.31-3.09-11.38-1.17-2.36-2.27-5.51-3.85-7.59-.99-1.31-9.83-8.09-8.17-2.81v6.51Z"/>
        <path class="cls-26" d="M771.48,341.18c-3.71-1.92-15.56-7.48-9.69-13.88,2.83-3.09,11.92-6.08,16.11-4.39-.13,3.51-4.03,6.14-4.88,9.63-.94,3.83.1,5.94.84,9.54.29.06.58.13.87.19l-3.25-1.08Z"/>
        <path class="cls-19" d="M744.36,698.05c-3.36,2.71-6.31,5.31-9.35,8.29-1.51,1.48-3.82,3-4.68,4.52,3.19.82,6.83-.22,9.56-1.97,2.67-1.71,3.4-2.38,3.39-5.42l1.08-5.42Z"/>
        <path class="cls-19" d="M1108.83,405.17c1.84-2.3,4.23-6.85,7.6-7.38,2.13-.33,2.78.2,1.67,2.53-.48,1.02-1.21,2.28-1.76,3.19-1.04,1.72-1.85,3.17-4.26,2.74l-3.25-1.08Z"/>
        <path class="cls-26" d="M1182.59,521.24c-.44-3.17-3.12-11.43,1.25-13.94,2.58-1.48,8.37-.21,9.53,2.64,1.2,2.97-2.49,13.65-6.44,12.38l-4.34-1.08Z"/>
        <path class="cls-26" d="M1030.73,706.73c.91,3.52,1.42,7.62,3.45,10.66,1.35,2.02,3.31,3.84,5.07,5.5,1.19,1.13,2.75,2.84,4.28,3.25,1.53-5.32-4.93-11.02-8.46-13.99l-4.34-5.42Z"/>
        <path class="cls-13" d="M804.02,709.26c-4.32-.8-5.66-1.41-9.18,1.22-4.19,3.12-7.95,6.75-10.93,11.04-2.91,4.19-4.89,8.81-5.79,13.85-.16.91-.92,7.24,0,8.68.77,1.23,1.18.68,2.13-.11,2.87-2.38,5.32-5.34,8.16-7.79,3.62-3.14,7.5-5.98,11.17-9.01,2.54-2.1,3.81-5.34,5.54-8.11.91-1.46,4.39-4.92,2.66-6.39-2.21-1.88-7.83,1.26-9.95,2.15,2.37-1.36,4.68-2.98,6.84-4.64,1.38-1.06,3.8-2.89-.64-.88Z"/>
        <path class="cls-13" d="M780.16,777.96c-2.86,2.83-5.68,5.21-6.25,9.4,1.3.51,2.83-2.82,3.36-3.45,1.12-1.33,2.21-3.48,3.62-4.5l-.72-1.45Z"/>
        <circle class="cls-5" cx="971.43" cy="522.43" r="95.19"/>
        <circle class="cls-6" cx="1059.29" cy="548.37" r="71.99" transform="translate(282.22 1453.33) rotate(-76.72)"/>
        <circle class="cls-7" cx="896.99" cy="496.12" r="134.82" transform="translate(-88.09 779.58) rotate(-45)"/>
        <circle class="cls-3" cx="994.64" cy="595.8" r="161.5"/>
        <ellipse class="cls-4" cx="1113.73" cy="401.97" rx="13.8" ry="11.97" transform="translate(295.09 1257.43) rotate(-66.11)"/>
        <path class="cls-37" d="M1063.68,340.76c-3.53,3.25-6.37,5.09-8.31,9.26-.98,2.11-3.64,5.7-2.36,8.08,2.6-1,4.44-3.94,6.33-5.89,2.22-2.29,3.02-5.51,4.34-8.2v-3.25Z"/>
        <path class="cls-37" d="M657.99,585.91c1.56,4.96,3.03,9.53,5.83,13.91,1.53,2.4,2.28,4.05,4.62,2.42,4.4-3.08-.51-5.94-1.77-8.74l-8.68-7.59Z"/>
        <path class="cls-28" d="M816.36,487.2c-2.66,2.78-5.74,5.44-7.38,9.01-1.77,3.86-2.53,8.48-3.25,12.63-.25,1.42-2.49,7.23-1.14,8.56,1.76,1.75,3.67-1.04,4.53-2.06,4.86-5.79,9.81-11.53,14.74-17.27,5.89-6.86,13.01-13.44,20.63-18.41,1.19-.78,5.24-2.18,5.46-3.99.31-2.64-5.08-1.59-6.58-1.45-6.95.66-13.43,4.08-19.26,7.66-5.17,3.18-11.37,6.32-14.26,11.82l6.51-6.51Z"/>
        <path class="cls-28" d="M836.97,512.15c-2.91.88-6.68,1.43-9.28,3.16-2.26,1.5-4.23,4.56-6,6.58-4.79,5.43-9.26,12.44-10.93,19.6-.61,2.62-3.41,16.23.97,17.14.91-1.23,2.2-1.43,3.45-2.17,1.12-1.02,2.3-1.96,3.54-2.83,1.67-.84,3.36-1.66,5.05-2.46,2.68-1.48,4.91-3.05,7.86-4.07,2.21-.77,3.28-1.22,4.9-2.94,2.72-2.9,3.68-5.68,4.78-9.49,1.28-4.44,3.38-8.5,4.69-12.92.44-1.47,2.31-4.93,1.81-6.43-.8-2.41-5.68-2.3-10.84-3.18Z"/>
        <path class="cls-37" d="M1216.62,386.32c1.84-1.06,6.22-4.84,8.74-3.08,1.64,1.15.28,3.22,1.6,4.12,1.01.68,2.88-.09,3.74-.45,2.75-1.15,5.53-2.85,8.49-3.92,1.47-.53,2.99-1.17,4.59-1.14,1.44.02,2.71,1,4.05,1.08,3.77.22,6.08-3.57,8.05-6.41,3.99-5.75,8.3-12.14,11.08-18.54.57-1.32,1.81-3.41,1.79-4.88-2.59,2.81-5.39,4.84-8.33,7.06-1.54,1.17-3.46,2.25-5.18,3.37-1.56,1.01-2.97,2.04-4.68,2.99-1.3.72-5.96,2-6.52,3.54,1.59,3.53,10.2-2.01,9.53,3.27-.32,2.55-2.87,4.49-4.91,5.51-2.24,1.12-4.68,1.55-7.07,2.29-3.18.98-6.21,2.71-9.56,3.06-3.89.41-5.46-1.94-5.81-5.39-1.76-.43-4.31,3.29-9.6,7.51Z"/>
        <path class="cls-26" d="M1127.7,429.73c-3.22,2.39-5.96,3.89-8.13,7.27-.4.63-1.88,2.47-1.88,3.48-.01,1.99,2.3,2.49,2.63,4.1.36,1.72-2.02,2.44-3.33,3.12-1.07.56-2.14.8-3.28,1.19-1.68.57-4,2.56-5.8,2.23-.52-1.21,1.03-2.28,1.54-3.27,1.07-2.06,2.33-3.9,3.47-5.85.51-.86.89-1.71,1.35-2.56.61-1.13.46-.82,1.34-1.56,2.11-1.76,4.15-3.92,6.27-5.79.84-.76,1.68-1.52,2.52-2.27.99-.61,2.06-.99,3.21-1.14.93-.69,1.15-1.89,2.56-1.44l-2.48,2.48Z"/>
        <path class="cls-26" d="M1175.63,467.74c-1.85.56-4.33.88-6.03,1.86-1.02.59-2.08,1.86-3.02,2.61-1.75,1.41-1.98,1.28-.53,2.63,1.69,1.57,3.58,1.93,5.7,2.61,1.28.41,2.43,1.45,3.55,1.8,3.6,1.14,7.6-1.99,10.28-3.89,2.29-1.62,8.14-2.88,9.01-5.79-2.82-.92-6.09-1.61-9.03-1.83h-9.92Z"/>
        <path class="cls-26" d="M773.19,635.49c-3.73,1.68-6.96,3.45-10.52,5.37-1.56.84-3.76,1.46-4.9,2.96,4.93-.45,12.18,1.55,16.6-.98.99-.57,1.33-1.4,1.9-2.37.77-1.31,2.12-2.66,2.54-4.15.43-1.53.29-1.97,1.18-3.26.68-.98,1.93-2.09,2.19-3.16-.24-.06-.49-.12-.73-.19l-8.26,5.78Z"/>
        <path class="cls-26" d="M768.23,655.32c-2.26,1.7-5.65,3.17-7.19,5.68,1.78.58,7.17-2.64,8.49-4.01-.3-.18-.46-.46-.47-.85l-.83-.83Z"/>
        <g class="cls-8">
          <path class="cls-29" d="M838.24,596.37c-.69,1.44-2.52,7.72-5.15,5.53-.61-.5-1.55-1.25-1.76-2.06-.22-.85-.05-1.08-.53-1.83-1.27-1.96-2.73-3.85-4.06-5.81-1.13-1.67-2.55-3.35-3.96-4.79-.54-.55-1.27-1.37-1.98-1.59-.12.76-.61,1.53-1.23.68-1.08-1.48,1.16-5.16,1.76-6.27.51-.95,1.28-2.95,2.23-3.45.43-.22.62.04,1.03-.35.65-.61.83-2.02,1.04-2.84.72-2.78-.04-5.91-1.24-8.45-.7-1.48-1.45-3.28-2.75-4.37-.39-.33-1.35-.87-1.84-1.01-1.06-.3-1.42.34-1.94,1.18-.94,1.54-.9,3.25-1.54,4.86-.24.62-.17.52-.66.85-.38.26-.87.32-1.24.59-.8.59-1.08,2.13-1.27,3.02-.76,3.43-.14,7.26.54,10.62.52,2.59,1.07,5.44.91,8.1-.07,1.25-.94.87-2.03.86-1.92,0-3.86.15-5.68.83-4.73,1.79-7.5,6.95-10.05,10.98-1.36,2.15-2.27,4.35-3.07,6.76-.58,1.75-1.41,3.62-1.19,5.49.27,2.25,2.46,2.91,3.67,4.69,2.33,3.42,1.54,7.72,2.25,11.57.39,2.09,1.25,5.34,3.76,5.72.92-1.54,1.57-3.74,3.23-4.64,2.05-1.12,4.33-.2,6.45-.63,2.1-.42,2.72-3.05,4.37-4.12,2.09-1.36,5.11.12,6.06,2.16,1.58,3.38.58,7.05-.45,10.44-.53,1.75-.84,3.27-.84,5.13,0,2.7.71,4.68,1.58,7.19.94,2.71,2.3,6.61.67,9.32-.85,1.4-2.31,2.16-3.88,2.42-2.45.4-4.61,1.07-6.93,1.98-.86.34-2.79.84-3.2,1.78-.3.69.08,1.51.36,2.1.91,1.91,1.83,5.04,1.59,7.19-.21,1.84-1.13,3.62-1.99,5.19-.63,1.16-.41,2.59-.39,3.88.01.63.18,1-.37,1.25-.94.43-2.63-.74-3.49-1.05-1.91-.69-3.78-1.49-5.68-2.19-.92-.34-2.89-1.1-3.86-.93-1.12.2-1.51,1.48-1.67,2.53-.32,2.08.75,4.06,1.57,5.89,2.56,5.76,7.97,9.47,10.42,15.25,1.69,3.98,1.93,8.35,3.51,12.37,1.5,3.81,3.56,7.63,6.14,10.82,2.38,2.93,4.68,5.7,7.99,7.59,2.59,1.48,5.06,2.43,8.07,2.67,5.09.42,9.59-2.66,14.67-2.46,2.2.09,4.25.64,6.33,1.36,1.89.66,3.64,1.5,5.69,1.08.36-.73-.49-1.93-.78-2.57-.76-1.7-1.71-3.7-1.74-5.62-.06-4.06,4.48-4.75,7.42-3.16,1.57.85,2.7,1.96,3.3,3.63.49,1.37.74,2.72,1.63,3.91,2.59,3.41,7.82,3.49,11.73,3.45,1.56-.01,3.16.12,4.71-.04,1.35-.14,2.57-.52,3.96-.32,1.98.28,3.87,1.03,5.83,1.36,3.42.58,7,.27,10.34-.58,2.53-.64,5.04-1.28,7.64-1.59,1.42-.17,2.46-.24,3.47.83,2.12,2.25,2.23,4.89,1.7,7.72-.38,2.04.36,2.37,2.31,2.43,1.44.05,2.73-.28,4.12-.58,1.64-.35,3.27-.52,4.93-.69,3.4-.36,5.78-1.7,7.29-4.84,1.05-2.19,1.02-4.48,1.31-6.84.36-3,1.27-6.13,2.7-8.81,2.22-4.16,7.03-8.45,11.96-8.48,1.35,0,2.69.07,4.04.04.86-.02.9,0,1.43.57,2.24,2.44,4.78,4.43,8.24,3.74,2.78-.56,4.97-2.23,6.89-4.28,1.93-2.08,3.37-4.61,5.84-6.14,2.29-1.42,4.78-1.43,7.34-.86,1.55.35,3.03,1.23,4.62,1.34,2.43.16,2.94-2.49,3.57-4.36,1.72-5.08,2.45-10.65,3.29-15.94.55-3.48.82-6.97,1.27-10.46.57-4.4,1.41-8.75,2.32-13.09,1.04-4.95,2.72-10.18,6.21-13.99,1.31-1.43,4.22-3.6,6.33-3.39.77.08,1.39.57,2.11.8.55-.82.7-2.32.82-3.16.42-3.14.48-6.5.53-9.65.13-9.05-.68-18.09-1.72-27.07-.44-3.77-.89-7.64-2.05-11.26-.92-2.85-3.42-6.75-6.07-8.38-4.47-2.76-10.27-2.99-15.29-1.87-.62.14-2.41.26-2.69.98-.41,1.05,1.39,2.32,1.98,2.96,1.21,1.29,2.5,2.99,2.6,4.86.14,2.53-.97,4.86-1.6,7.25-.94,3.57-1.09,7.25-.79,10.93.12,1.54,1.49,6.35-1.72,5.71-4.43-.89-7.28-6.4-9.72-9.57-1.64-2.13-3.68-3.69-6.11-4.82-3.06-1.42-6.15-1-9.3-.29-2.5.57-5.27,1.86-7.82,2.15-2.51.28-4.22-.39-6.3-1.82-4.55-3.13-8.27-7.3-12.17-11.17-4.25-4.22-8.61-8.32-13.12-12.26-5.74-5.01-12.14-10.05-18.79-13.79-5.44-3.06-11.73-5.51-18.06-5.79-7.78-.34-16.37,1.12-22.42,6.31-2.35,2.01-4.23,4.55-6.39,6.76-1.79,1.83-3.98,3.29-6.29,4.39-3.3,1.57-6.94,2.57-9.64,5.2-2.01,1.96-4.12,4.39-5.16,7.15Z"/>
        </g>
      </g>
    </g>
  </g>
</svg>